<svg xmlns="http://www.w3.org/2000/svg" viewBox="0 0 1200 900"><defs><style>.cls-1{fill:#ecfcc1;}.cls-12,.cls-2{fill:#708d22;}.cls-12,.cls-13,.cls-14,.cls-15,.cls-16,.cls-17,.cls-18,.cls-19,.cls-2,.cls-20,.cls-6,.cls-7,.cls-8,.cls-9{stroke:#000;}.cls-10,.cls-11,.cls-12,.cls-13,.cls-14,.cls-15,.cls-16,.cls-17,.cls-18,.cls-19,.cls-2,.cls-20,.cls-3,.cls-4,.cls-5,.cls-6,.cls-7,.cls-8,.cls-9{stroke-linecap:round;stroke-linejoin:round;stroke-width:0.5px;}.cls-3{fill:#1d2509;}.cls-10,.cls-11,.cls-3,.cls-4,.cls-5{stroke:#001e01;}.cls-4{fill:#2b7a55;}.cls-5{fill:#00371d;}.cls-19,.cls-6,.cls-9{fill:#cdf75d;}.cls-17,.cls-7{fill:#c3f53c;}.cls-10,.cls-12,.cls-18,.cls-7,.cls-9{stroke-dasharray:2.79;}.cls-18,.cls-20,.cls-8{fill:#9ac12f;}.cls-10,.cls-11,.cls-14{fill:none;}.cls-13{fill:#ffaa05;}.cls-15{fill:#ffbf4d;}.cls-19{stroke-dasharray:2.35;}.cls-20{stroke-dasharray:2.07;}</style></defs><title>illo-yield-desktop_mobile</title><g id="_0110_yield" data-name="0110_yield"><rect class="cls-1" width="1200" height="900"/><polygon class="cls-2" points="951.28 505.06 951.28 561.74 786.45 644.79 786.45 588.11 951.28 505.06"/><polygon class="cls-3" points="621.61 505.06 621.61 561.74 786.45 644.79 786.45 588.11 621.61 505.06"/><polygon class="cls-4" points="951.28 561.74 951.28 600.73 786.45 683.78 786.45 644.79 951.28 561.74"/><polygon class="cls-5" points="621.61 561.74 621.61 600.73 786.45 683.78 786.45 644.79 621.61 561.74"/><polyline class="cls-6" points="951.28 486.84 951.28 505.06 786.45 588.11 786.45 569.89"/><polyline class="cls-2" points="621.61 486.84 621.61 505.06 786.45 588.11 786.45 569.89"/><polygon class="cls-7" points="951.28 486.9 786.45 569.95 621.61 486.9 786.45 403.85 951.28 486.9"/><path class="cls-8" d="M789.33,285.46l-129,44.78V484.71l4.43,2.23V493c0,1.74,2.82,3.15,6.3,3.15,3.29,0,6-1.26,6.27-2.87l10.41,5.25v5.62c0,1.74,2.82,3.15,6.3,3.15,3,0,5.56-1.07,6.16-2.5l15.2,7.66v3.9c0,1.74,2.82,3.15,6.3,3.15A11.23,11.23,0,0,0,725,519v7c0,1.74,2.82,3.14,6.3,3.14s6.29-1.4,6.29-3.14v-2.46l8.2,4.13v2.47c0,1.48,2.06,2.73,4.82,3.06v7.11c0,1.74,2.82,3.15,6.3,3.15s6.3-1.41,6.3-3.15v-3.87l9.11,4.59v4.47c0,1.74,2.82,3.15,6.3,3.15a8.58,8.58,0,0,0,5.54-1.65l5.18,2.61Z"/><path class="cls-9" d="M918.29,312.05l-129,40.74V549.68L799,544.8c.34,0,.68.05,1,.05,3.48,0,6.3-1.41,6.3-3.15v-.6l9.11-4.59c0,1.74,2.82,3.15,6.3,3.15s6.29-1.41,6.29-3.15v-6.34l13.48-6.79c.94,1.15,3.2,2,5.84,2,3.48,0,6.29-1.41,6.29-3.15v-4.93l3.25-1.63h0c3.48,0,6.29-1.41,6.29-3.15v0l8.1-4.08v.57c0,1.74,2.82,3.14,6.3,3.14s6.3-1.4,6.3-3.14V503.4h.67c3.47,0,6.29-1.41,6.29-3.14v-1.75l4.16-2.1a11.12,11.12,0,0,0,3.29.47c3.47,0,6.29-1.41,6.29-3.15V491.9a11.29,11.29,0,0,0,3,.37c3.48,0,6.29-1.41,6.29-3.15v-2.18l4.43-2.23Z"/><line class="cls-10" x1="678" y1="382.32" x2="678" y2="492.62"/><line class="cls-10" x1="688.36" y1="411.38" x2="688.36" y2="494.66"/><line class="cls-10" x1="724.85" y1="434.32" x2="724.85" y2="517.61"/><line class="cls-10" x1="763.99" y1="425.13" x2="763.99" y2="529.93"/><line class="cls-10" x1="783.21" y1="461.77" x2="783.21" y2="545.06"/><line class="cls-10" x1="910.22" y1="402.96" x2="910.22" y2="486.25"/><line class="cls-10" x1="892.97" y1="383.49" x2="892.97" y2="466.77"/><line class="cls-10" x1="880.91" y1="407.08" x2="880.91" y2="490.36"/><line class="cls-10" x1="838.1" y1="440.85" x2="838.1" y2="524.13"/><line class="cls-10" x1="805.77" y1="455.4" x2="805.77" y2="538.69"/><line class="cls-11" x1="714.93" y1="407.22" x2="714.93" y2="493.14"/><line class="cls-11" x1="773.38" y1="448.11" x2="773.38" y2="534.02"/><line class="cls-11" x1="849.09" y1="420.42" x2="849.09" y2="506.33"/><path class="cls-2" d="M662.79,288V489.75c0,.72-1.18,1.32-2.64,1.32s-2.64-.6-2.64-1.32V288Z"/><path class="cls-12" d="M706.43,309.31V511.06c0,.72-1.18,1.32-2.64,1.32s-2.64-.6-2.64-1.32V309.31Z"/><path class="cls-2" d="M749.8,331.18V532.93c0,.72-1.19,1.32-2.64,1.32s-2.64-.6-2.64-1.32V331.18Z"/><path class="cls-8" d="M793.59,352.79V554.54c0,.72-1.18,1.32-2.63,1.32s-2.64-.6-2.64-1.32V352.79Z"/><path class="cls-8" d="M833.31,333.54V535.29c0,.73-1.18,1.32-2.64,1.32S828,536,828,535.29V333.54Z"/><path class="cls-8" d="M870.43,313.83V515.58c0,.73-1.18,1.32-2.64,1.32s-2.63-.59-2.63-1.32V313.83Z"/><path class="cls-8" d="M907.55,294.83V496.58c0,.73-1.18,1.32-2.64,1.32s-2.63-.59-2.63-1.32V294.83Z"/><ellipse class="cls-6" cx="750.24" cy="316.07" rx="2.9" ry="1.45" transform="translate(-49.44 163.51) rotate(-12.04)"/><path class="cls-6" d="M720.2,293.57s.86-22.11.87-25.26,8-6.72,8-6.72L729,274.34Z"/><path class="cls-13" d="M726.36,272c3.84,18,8.84,36.95,22.18,34.11,12.34-2.64,10.18-22.17,6.33-40.2s-17-47.69-24.86-46S722.51,254,726.36,272Z"/><path class="cls-14" d="M723.8,245.31c.66,3.11,6.24,4.55,12.46,3.23s10.72-4.92,10-8"/><path class="cls-14" d="M724.16,254.72c.76,3.54,7.12,5.19,14.2,3.68s12.22-5.61,11.46-9.15"/><path class="cls-14" d="M725,263.76c.81,3.8,7.78,5.53,15.37,3.91s13.09-6,12.28-9.8"/><path class="cls-14" d="M727,275c.84,3.94,7.91,5.77,15.78,4.09s13.49-6.06,12.65-10"/><path class="cls-14" d="M729.18,283.69c.82,3.85,7.73,5.64,15.43,4s13-5.61,12.38-9.71"/><path class="cls-15" d="M730,219.9c4-.85,9.23,6.2,14,15.71.36,2.73-3.59,5.82-9,7s-10.54-.1-11.14-2.88l-.05-.08C724.22,229.15,726.1,220.73,730,219.9Z"/><line class="cls-14" x1="730.01" y1="219.9" x2="748.41" y2="306.13"/><path class="cls-14" d="M730,219.9s3.29,1.8,11.46,26.2c4,11.9,8.19,30.3,9.28,38.7a112.75,112.75,0,0,1,.87,20.15"/><path class="cls-14" d="M730,219.9s7.34,1.53,15.5,25.93c4,11.9,8.6,29.1,9.66,37.51,1.42,11.27-.5,18.83-.5,18.83"/><path class="cls-14" d="M729.72,220s-2.22,3,.33,28.58c1.25,12.48,4.92,31,7.34,39.12a93.76,93.76,0,0,0,7.76,18.67"/><path class="cls-14" d="M729.72,220s-6,4.36-3.4,30c1.24,12.48,4.07,30.06,6.52,38.17,3.29,10.87,8.23,17,8.23,17"/><path class="cls-8" d="M753.79,305.3,756,315.65c.32,1.52-1.87,3.27-4.9,3.92s-5.74-.06-6.07-1.58l-2.21-10.35Z"/><ellipse class="cls-6" cx="748.31" cy="306.47" rx="5.61" ry="2.8" transform="translate(-47.48 162.89) rotate(-12.04)"/><path class="cls-8" d="M743.87,309.31a9.14,9.14,0,0,0,5.13.32,9.25,9.25,0,0,0,3.71-1.66h0c7.87-5.93,7.39-25,4-42.51-1.13-5.86-18.66,8.05-19,13.74-1,14.15,1.83,17.43,4.07,24.32a61.24,61.24,0,0,0,2.15,5.79Z"/><path class="cls-8" d="M741.72,303.52c-2.24-6.89-2.66-13.53-7.72-30L723.56,265c.47,18,7.77,37.94,18.41,43.35a16.52,16.52,0,0,0,1.9.92A61.24,61.24,0,0,1,741.72,303.52Z"/><polygon class="cls-16" points="737.65 279.2 755.71 272.44 757.32 262.83 739.59 269.39 737.65 279.2"/><path class="cls-17" d="M778.58,276.78c-1.64-8-20.46-21.14-21-20.82,0,0-17.45,13.14-18,13.43.95-.53,4.59,1.26,8.64,3.42,11.09,5.9,15.55,9.93,17.58,12.73,2.39,3.3,4.66,12.43,5.07,17.51C770.93,303.61,779.55,281.5,778.58,276.78Z"/><path class="cls-14" d="M748.94,263.13s5.17,1.43,13.21,7.27,9.44,7.87,10.39,10.07c1.85,4.27-.36,17.86-1.49,22"/><path class="cls-13" d="M713.78,288.57c0,18.44-.94,38-14.58,38-12.61,0-14.58-19.55-14.58-38s6.66-50.19,14.71-50.19S713.78,270.13,713.78,288.57Z"/><path class="cls-14" d="M710.71,261.94c0,3.18-5.15,5.75-11.51,5.75s-11.51-2.57-11.51-5.75"/><path class="cls-14" d="M712.32,271.22c0,3.62-5.87,6.56-13.12,6.56s-13.12-2.94-13.12-6.56"/><path class="cls-14" d="M713.42,280.23c0,3.88-6.46,7-14.22,7s-14.05-3.14-14.05-7"/><path class="cls-14" d="M713.78,291.61c0,4-6.53,7.29-14.58,7.29s-14.46-3.11-14.46-7.14"/><path class="cls-14" d="M713.46,300.6c0,3.93-6.39,7.13-14.26,7.13s-13.89-2.78-14.13-6.92"/><path class="cls-15" d="M699.33,238.38c-4,0-7.72,8-10.4,18.28.21,2.75,4.72,4.94,10.27,4.94s10.29-2.3,10.29-5.14l0-.09C706.93,246.22,703.33,238.38,699.33,238.38Z"/><line class="cls-14" x1="699.33" y1="238.38" x2="699.33" y2="326.56"/><path class="cls-14" d="M699.33,238.38s-2.84,2.45-5.74,28c-1.41,12.47-1.69,31.34-1,39.79A112.6,112.6,0,0,0,696,326.06"/><path class="cls-14" d="M699.33,238.38s-6.85,3-9.75,28.6c-1.41,12.46-2.33,30.25-1.61,38.69,1,11.32,4.42,18.32,4.42,18.32"/><path class="cls-14" d="M699.64,238.38s2.79,2.45,5.63,28c1.39,12.47,1.66,31.34,1,39.79a93.7,93.7,0,0,1-3.7,19.87"/><path class="cls-14" d="M699.64,238.38s6.73,3,9.57,28.6c1.39,12.46,2.29,30.25,1.59,38.69C709.85,317,706.29,324,706.29,324"/><path class="cls-6" d="M693.9,326.86v10.59c0,1.55,2.51,2.8,5.61,2.8s5.6-1.25,5.6-2.8V326.86Z"/><ellipse class="cls-6" cx="699.51" cy="326.86" rx="5.61" ry="2.8"/><path class="cls-8" d="M704.44,328.72a9.23,9.23,0,0,1-5,1.38,9.35,9.35,0,0,1-4-.85h0c-11.91-5.54-13.66-24.23-11.65-45.08-.06-5.84-3.16-13.63-3.16-13.63s8.14,4.5,11.81,10.64c3.42,5.73,8.21,12.07,9.77,17.55,3.89,13.64,3.79,16.66,3,23.88-.39,3.76-.87,6-.89,6.11Z"/><path class="cls-6" d="M705.33,322.61c.75-7.22,0-10.08-3.84-23.71-1.56-5.49,4.39-12.23,7-20,1.64-4.9,3.56-10.26,9.35-12.2,0,0-3.76,9.26-2.9,18.5,1.5,16,4.07,31.79-8.82,42.22a18.2,18.2,0,0,1-1.66,1.3C704.46,328.63,704.94,326.37,705.33,322.61Z"/><path class="cls-13" d="M751.63,302.38c0,18.44-.94,38-14.58,38-12.61,0-14.58-19.55-14.58-38s6.66-50.19,14.71-50.19S751.63,283.94,751.63,302.38Z"/><path class="cls-14" d="M748.56,275.75c0,3.18-5.15,5.76-11.51,5.76s-11.51-2.58-11.51-5.76"/><path class="cls-14" d="M750.17,285c0,3.62-5.87,6.56-13.12,6.56s-13.12-2.94-13.12-6.56"/><path class="cls-14" d="M751.27,294c0,3.88-6.46,7-14.22,7s-14-3.15-14-7"/><path class="cls-14" d="M751.63,305.42c0,4-6.53,7.29-14.58,7.29s-14.46-3.11-14.46-7.14"/><path class="cls-14" d="M751.31,314.41c0,3.94-6.38,7.13-14.26,7.13s-13.88-2.78-14.13-6.92"/><path class="cls-15" d="M737.18,252.19c-4,0-7.72,8-10.4,18.28.22,2.75,4.73,4.95,10.27,4.95s10.29-2.31,10.29-5.15l0-.08C744.78,260,741.19,252.19,737.18,252.19Z"/><line class="cls-14" x1="737.18" y1="252.19" x2="737.18" y2="340.37"/><path class="cls-14" d="M737.18,252.19s-2.84,2.45-5.73,28c-1.42,12.47-1.69,31.34-1,39.79a112.85,112.85,0,0,0,3.36,19.88"/><path class="cls-14" d="M737.18,252.19s-6.85,3-9.74,28.6c-1.42,12.47-2.34,30.25-1.62,38.7,1,11.31,4.42,18.31,4.42,18.31"/><path class="cls-14" d="M737.49,252.19s2.79,2.45,5.63,28c1.39,12.47,1.66,31.34,1,39.79a93.89,93.89,0,0,1-3.7,19.88"/><path class="cls-14" d="M737.49,252.19s6.73,3,9.57,28.6c1.39,12.47,2.29,30.25,1.59,38.7-.95,11.31-4.51,18.31-4.51,18.31"/><path class="cls-6" d="M731.75,340.67v10.59c0,1.55,2.51,2.81,5.61,2.81s5.6-1.26,5.6-2.81V340.67Z"/><ellipse class="cls-6" cx="737.36" cy="340.67" rx="5.61" ry="2.8"/><path class="cls-6" d="M742.29,342.53a9.62,9.62,0,0,1-8.92.53h0c-11.91-5.54-13.66-24.22-11.65-45.07-.06-5.85-3.15-13.64-3.15-13.64s8.13,4.5,11.8,10.65c3.42,5.73,8.21,12.06,9.77,17.54,3.9,13.64,3.79,16.67,3,23.88-.39,3.76-.87,6-.89,6.11Z"/><path class="cls-6" d="M743.18,336.42c.75-7.21.06-10.07-3.84-23.71-1.56-5.48,4.39-12.22,7-20,1.64-4.9,3.56-10.26,9.35-12.2,0,0-3.76,9.26-2.9,18.5,1.5,16,4.07,31.79-8.82,42.22a15.26,15.26,0,0,1-1.66,1.3C742.31,342.44,742.79,340.18,743.18,336.42Z"/><ellipse class="cls-6" cx="904.9" cy="360.13" rx="2.9" ry="1.45"/><path class="cls-6" d="M929.58,331.86s-5.45-21.45-6.12-24.52-9.25-4.9-9.25-4.9l2.72,12.46Z"/><path class="cls-13" d="M919.06,312.05c0,18.43-.94,38-14.58,38-12.61,0-14.58-19.55-14.58-38s6.66-50.2,14.71-50.2S919.06,293.61,919.06,312.05Z"/><path class="cls-14" d="M916,285.42c0,3.17-5.15,5.75-11.51,5.75S893,288.59,893,285.42"/><path class="cls-14" d="M917.6,294.69c0,3.63-5.87,6.56-13.12,6.56s-13.12-2.93-13.12-6.56"/><path class="cls-14" d="M918.7,303.71c0,3.88-6.46,7-14.22,7s-14.05-3.14-14.05-7"/><path class="cls-14" d="M919.06,315.09c0,4-6.53,7.28-14.58,7.28S890,319.26,890,315.24"/><path class="cls-14" d="M918.74,324.07c0,3.94-6.39,7.13-14.26,7.13s-13.89-2.77-14.13-6.91"/><path class="cls-15" d="M904.61,261.85c-4,0-7.73,8-10.4,18.29.21,2.75,4.72,4.94,10.27,4.94s10.29-2.3,10.29-5.14l0-.09C912.2,269.7,908.61,261.85,904.61,261.85Z"/><line class="cls-14" x1="904.61" y1="261.85" x2="904.61" y2="350.03"/><path class="cls-14" d="M904.61,261.85s-2.84,2.45-5.74,28c-1.41,12.46-1.69,31.34-1,39.78a112.61,112.61,0,0,0,3.36,19.88"/><path class="cls-14" d="M904.61,261.85s-6.85,3-9.75,28.6c-1.41,12.47-2.33,30.26-1.61,38.7,1,11.32,4.42,18.32,4.42,18.32"/><path class="cls-14" d="M904.91,261.85s2.8,2.45,5.64,28c1.39,12.46,1.66,31.34,1,39.78a93.71,93.71,0,0,1-3.7,19.88"/><path class="cls-14" d="M904.91,261.85s6.74,3,9.58,28.6c1.39,12.47,2.29,30.26,1.59,38.7-1,11.32-4.51,18.32-4.51,18.32"/><path class="cls-6" d="M899.18,350.34v10.59c0,1.55,2.51,2.8,5.61,2.8s5.6-1.25,5.6-2.8V350.34Z"/><ellipse class="cls-6" cx="904.79" cy="350.34" rx="5.61" ry="2.8"/><path class="cls-6" d="M909.72,352.2a9.23,9.23,0,0,1-5,1.38,9.35,9.35,0,0,1-4-.85h0c-8.94-4.16-12.43-22.86-12.78-40.75-.11-6,19.93,4,21.5,9.46,3.89,13.64,1.84,17.43,1.09,24.65-.39,3.76-.87,6-.89,6.1Z"/><path class="cls-6" d="M910.61,346.09c.75-7.22-.22-13.8,1.28-31l8.45-10.43c3.31,17.74.32,38.73-9,46.24a16.48,16.48,0,0,1-1.66,1.29C909.74,352.1,910.22,349.85,910.61,346.09Z"/><polygon class="cls-16" points="909.52 321.44 890.44 318.61 886.87 309.55 905.58 312.26 909.52 321.44"/><path class="cls-17" d="M869,327.62c-.06-8.13,15.6-24.95,16.23-24.75,0,0,19.8,9.22,20.37,9.39-1.05-.32-4.23,2.19-7.74,5.14-9.61,8.09-13.14,13-14.54,16.12-1.64,3.73-2,13.13-1.31,18.18C882.07,352.27,869,332.44,869,327.62Z"/><path class="cls-14" d="M895.12,308.08s-4.76,2.49-11.4,9.88-7.58,9.66-8.06,12c-.92,4.57,4.08,17.39,6,21.2"/><ellipse class="cls-6" cx="660.83" cy="361.95" rx="2.9" ry="1.45"/><path class="cls-6" d="M636.14,333.67s5.46-21.44,6.13-24.52,9.25-4.89,9.25-4.89l-2.72,12.46Z"/><path class="cls-13" d="M646.67,313.86c0,18.44.94,38,14.58,38,12.61,0,14.58-19.55,14.58-38s-6.66-50.19-14.71-50.19S646.67,295.42,646.67,313.86Z"/><path class="cls-14" d="M649.74,287.23c0,3.18,5.15,5.76,11.51,5.76s11.51-2.58,11.51-5.76"/><path class="cls-14" d="M648.13,296.51c0,3.62,5.87,6.56,13.12,6.56s13.12-2.94,13.12-6.56"/><path class="cls-14" d="M647,305.52c0,3.88,6.46,7,14.22,7s14-3.15,14-7"/><path class="cls-14" d="M646.67,316.9c0,4,6.53,7.29,14.58,7.29s14.46-3.11,14.46-7.14"/><path class="cls-14" d="M647,325.89c0,3.94,6.38,7.13,14.26,7.13s13.88-2.78,14.13-6.92"/><path class="cls-15" d="M661.12,263.67c4,0,7.72,8,10.4,18.28-.22,2.75-4.73,4.95-10.27,4.95S651,284.59,651,281.75l0-.08C653.52,271.51,657.11,263.67,661.12,263.67Z"/><line class="cls-14" x1="661.12" y1="263.67" x2="661.12" y2="351.85"/><path class="cls-14" d="M661.12,263.67s2.84,2.45,5.73,28c1.42,12.47,1.69,31.34,1,39.79a112.85,112.85,0,0,1-3.36,19.88"/><path class="cls-14" d="M661.12,263.67s6.85,3,9.74,28.6c1.42,12.47,2.34,30.25,1.62,38.7-1,11.31-4.42,18.31-4.42,18.31"/><path class="cls-14" d="M660.81,263.67s-2.79,2.45-5.63,28c-1.39,12.47-1.66,31.34-1,39.79a93.89,93.89,0,0,0,3.7,19.88"/><path class="cls-14" d="M660.81,263.67s-6.73,3-9.57,28.6c-1.39,12.47-2.29,30.25-1.59,38.7,1,11.31,4.51,18.31,4.51,18.31"/><path class="cls-8" d="M666.55,352.15v10.59c0,1.55-2.51,2.81-5.61,2.81s-5.6-1.26-5.6-2.81V352.15Z"/><ellipse class="cls-6" cx="660.94" cy="352.15" rx="5.61" ry="2.8"/><path class="cls-8" d="M656,354a9.62,9.62,0,0,0,8.92.53h0c8.93-4.15,12.43-22.85,12.77-40.74.12-6-19.93,4-21.49,9.46-3.89,13.64-1.84,17.43-1.09,24.64.39,3.76.87,6,.89,6.11Z"/><path class="cls-8" d="M655.12,347.9c-.75-7.21.22-13.79-1.28-31l-8.45-10.42c-3.31,17.74-.32,38.73,9,46.23A15.26,15.26,0,0,0,656,354C656,353.92,655.51,351.66,655.12,347.9Z"/><polygon class="cls-16" points="656.21 323.26 675.29 320.42 678.86 311.36 660.15 314.07 656.21 323.26"/><path class="cls-17" d="M696.74,329.44c.07-8.14-15.59-24.95-16.22-24.76,0,0-19.81,9.22-20.37,9.39,1.05-.32,4.23,2.2,7.74,5.15,9.61,8.08,13.14,13,14.54,16.12,1.64,3.73,2,13.13,1.3,18.18C683.66,354.08,696.71,334.26,696.74,329.44Z"/><path class="cls-14" d="M670.61,309.9s4.76,2.48,11.39,9.87,7.59,9.67,8.07,12C691,336.35,686,349.18,684,353"/><path class="cls-6" d="M815,317.75v11c0,1.62,2.62,2.93,5.85,2.93s5.85-1.31,5.85-2.93v-11Z"/><ellipse class="cls-6" cx="820.87" cy="317.75" rx="5.85" ry="2.92"/><path class="cls-6" d="M828.1,228.72h0a161.21,161.21,0,0,0-5.81,15.19c.89-11.42-1.44-28.69-1.44-28.69s.55.73,1.41,2.09A71.93,71.93,0,0,1,828.1,228.72Z"/><path class="cls-6" d="M826,319.69a10,10,0,0,1-9.3.55h0c-12.42-5.77-11.54-38.52-9.45-60.26a39.46,39.46,0,0,0,0-7c-.68-7.9-2.24-26.11-2.24-26.11s2.16,5.11,5.11,12.5c2.24,5.63,5,12.59,7.51,19.6,2.46,6.75,4.78,13.55,6.41,19.26A95,95,0,0,1,827,313.32c-.41,3.92-.92,6.27-.94,6.37Z"/><path class="cls-6" d="M827,313.32a95,95,0,0,0-2.86-35.05c-1.63-5.71-4-12.51-6.41-19.26,0,0,1.91-7,4.61-15.1a161.21,161.21,0,0,1,5.81-15.19h0a49.23,49.23,0,0,1,2.53-4.91s1.26,11.83,1.35,16.45a96,96,0,0,0,.92,10c2.24,15.77,7.08,56.42-5.15,68.1a10.11,10.11,0,0,1-1.74,1.36C826,319.59,826.54,317.24,827,313.32Z"/><path class="cls-6" d="M820.37,215.9c.31-.45.48-.68.48-.68s2.33,17.27,1.44,28.69c-2.7,8.11-4.61,15.1-4.61,15.1-2.56-7-5.27-14-7.51-19.6A73.52,73.52,0,0,1,820.37,215.9Z"/><path class="cls-6" d="M811.08,253.08c4,10.57,7,19.28,8.87,25.89,4.33,15.19,3.16,35,2.32,42.06"/><path class="cls-6" d="M830.21,259.62c1.75,17.57,2.69,41.18-2.8,53.9"/><path class="cls-6" d="M763.67,328v11.05c0,1.61,2.62,2.92,5.84,2.92s5.85-1.31,5.85-2.92V328Z"/><ellipse class="cls-6" cx="769.51" cy="328.02" rx="5.85" ry="2.92"/><path class="cls-6" d="M776.74,239h0a160,160,0,0,0-5.8,15.18c.88-11.42-1.44-28.69-1.44-28.69s.54.73,1.41,2.09A72.54,72.54,0,0,1,776.74,239Z"/><path class="cls-6" d="M774.66,330a9.59,9.59,0,0,1-5.16,1.44,9.81,9.81,0,0,1-4.14-.88h0c-12.42-5.77-11.55-38.51-9.46-60.26a38.52,38.52,0,0,0,0-7c-.68-7.9-2.24-26.11-2.24-26.11s2.16,5.11,5.11,12.5c2.25,5.63,5,12.59,7.51,19.6,2.46,6.75,4.78,13.55,6.41,19.27a94.93,94.93,0,0,1,2.86,35c-.41,3.92-.91,6.28-.93,6.37Z"/><path class="cls-6" d="M775.59,323.59a94.93,94.93,0,0,0-2.86-35c-1.63-5.72-4-12.52-6.41-19.27,0,0,1.91-7,4.62-15.1a160,160,0,0,1,5.8-15.18h0a52.59,52.59,0,0,1,2.54-4.91s1.25,11.83,1.34,16.45a98.9,98.9,0,0,0,.92,10c2.24,15.77,7.09,56.43-5.15,68.11a10.49,10.49,0,0,1-1.73,1.35C774.68,329.87,775.18,327.51,775.59,323.59Z"/><path class="cls-6" d="M769,226.17c.3-.45.48-.68.48-.68s2.32,17.27,1.44,28.69c-2.71,8.11-4.62,15.1-4.62,15.1-2.55-7-5.26-14-7.51-19.6A73.34,73.34,0,0,1,769,226.17Z"/><path class="cls-6" d="M759.72,263.35c4,10.58,7,19.29,8.87,25.89,4.33,15.19,3.16,35,2.32,42.07"/><path class="cls-6" d="M778.85,269.9c1.76,17.56,2.7,41.17-2.79,53.89"/><path class="cls-13" d="M779.29,318.81c0,18.44-.94,38-14.58,38-12.61,0-14.57-19.55-14.57-38s6.65-50.19,14.7-50.19S779.29,300.38,779.29,318.81Z"/><path class="cls-14" d="M776.22,292.18c0,3.18-5.15,5.76-11.51,5.76s-11.51-2.58-11.51-5.76"/><path class="cls-14" d="M777.83,301.46c0,3.62-5.87,6.56-13.12,6.56s-13.12-2.94-13.12-6.56"/><path class="cls-14" d="M778.93,310.47c0,3.88-6.46,7-14.22,7s-14.05-3.15-14.05-7"/><path class="cls-14" d="M779.29,321.85c0,4-6.53,7.29-14.58,7.29S750.25,326,750.25,322"/><path class="cls-14" d="M779,330.84c0,3.94-6.38,7.13-14.26,7.13s-13.88-2.77-14.12-6.91"/><path class="cls-15" d="M764.84,268.62c-4,0-7.72,8-10.4,18.29.22,2.74,4.73,4.94,10.27,4.94s10.29-2.3,10.29-5.14l0-.09C772.44,276.47,768.85,268.62,764.84,268.62Z"/><line class="cls-14" x1="764.84" y1="268.62" x2="764.84" y2="356.8"/><path class="cls-14" d="M764.84,268.62s-2.84,2.45-5.73,28c-1.42,12.47-1.69,31.35-1,39.79a112.85,112.85,0,0,0,3.36,19.88"/><path class="cls-14" d="M764.84,268.62s-6.85,3-9.74,28.6c-1.42,12.47-2.34,30.26-1.62,38.7,1,11.32,4.42,18.32,4.42,18.32"/><path class="cls-14" d="M765.15,268.62s2.79,2.45,5.63,28c1.39,12.47,1.66,31.35,1,39.79a93.89,93.89,0,0,1-3.7,19.88"/><path class="cls-14" d="M765.15,268.62s6.73,3,9.57,28.6c1.39,12.47,2.3,30.26,1.59,38.7-.95,11.32-4.51,18.32-4.51,18.32"/><path class="cls-6" d="M759.41,357.11V367.7c0,1.54,2.51,2.8,5.61,2.8s5.61-1.26,5.61-2.8V357.11Z"/><ellipse class="cls-6" cx="765.02" cy="357.11" rx="5.61" ry="2.8"/><path class="cls-6" d="M770,359a9.14,9.14,0,0,1-5,1.38,9.35,9.35,0,0,1-4-.84h0c-11.91-5.53-14.16-36.94-12.15-57.79a36.35,36.35,0,0,0,0-6.68c-.65-7.57-2.64-24.63-2.64-24.63A31.28,31.28,0,0,1,754.75,282c2.16,5.41,4.76,12.08,7.21,18.8,2.36,6.47,4.58,13,6.14,18.48a90.82,90.82,0,0,1,2.74,33.6c-.39,3.77-.87,6-.89,6.11Z"/><path class="cls-6" d="M770.84,352.85a90.82,90.82,0,0,0-2.74-33.6c-1.56-5.49-.07-16.24,2.53-24,1.63-4.91,1.08-19.73,4.41-22.82a37.17,37.17,0,0,0,4-4.39s-2.58,12.06-2.5,16.49c.07,3.51.23,10.34.48,11.35,3.91,15.56,7.47,51.37-5.42,61.79A15.26,15.26,0,0,1,770,359C770,358.87,770.45,356.62,770.84,352.85Z"/><path class="cls-6" d="M774,301.36c1.68,16.85,2.58,39.49-2.69,51.69"/><path class="cls-13" d="M800.58,253.93c0,18.44-.94,38-14.57,38-12.62,0-14.58-19.55-14.58-38s6.66-50.19,14.71-50.19S800.58,235.49,800.58,253.93Z"/><path class="cls-14" d="M797.52,227.3c0,3.18-5.16,5.76-11.51,5.76s-11.51-2.58-11.51-5.76"/><path class="cls-14" d="M799.13,236.58c0,3.62-5.88,6.56-13.12,6.56s-13.12-2.94-13.12-6.56"/><path class="cls-14" d="M800.23,245.59c0,3.88-6.46,7-14.22,7s-14.06-3.15-14.06-7"/><path class="cls-14" d="M800.58,257c0,4-6.52,7.29-14.57,7.29s-14.47-3.11-14.47-7.13"/><path class="cls-14" d="M800.26,266c0,3.94-6.38,7.13-14.25,7.13s-13.89-2.77-14.13-6.91"/><path class="cls-15" d="M786.14,203.74c-4,0-7.73,8-10.4,18.29C776,224.77,780.46,227,786,227s10.28-2.3,10.28-5.15l0-.08C793.73,211.58,790.14,203.74,786.14,203.74Z"/><line class="cls-14" x1="786.14" y1="203.74" x2="786.14" y2="291.92"/><path class="cls-14" d="M786.14,203.74s-2.84,2.45-5.74,28c-1.41,12.47-1.69,31.35-1,39.79a111.74,111.74,0,0,0,3.36,19.88"/><path class="cls-14" d="M786.14,203.74s-6.85,3-9.75,28.6c-1.41,12.47-2.33,30.25-1.62,38.7,1,11.32,4.42,18.31,4.42,18.31"/><path class="cls-14" d="M786.44,203.74s2.79,2.45,5.64,28c1.38,12.47,1.66,31.35,1,39.79a94.3,94.3,0,0,1-3.69,19.88"/><path class="cls-14" d="M786.44,203.74s6.73,3,9.58,28.6c1.38,12.47,2.29,30.25,1.58,38.7-.94,11.32-4.5,18.31-4.5,18.31"/><path class="cls-6" d="M780.7,292.22v10.59c0,1.55,2.51,2.81,5.61,2.81s5.61-1.26,5.61-2.81V292.22Z"/><ellipse class="cls-6" cx="786.31" cy="292.22" rx="5.61" ry="2.8"/><path class="cls-6" d="M791.24,294.08a9.11,9.11,0,0,1-5,1.38,9.23,9.23,0,0,1-4-.85h0c-11.91-5.54-14.15-36.94-12.15-57.79a36.35,36.35,0,0,0,0-6.68c-.65-7.57-2.64-24.64-2.64-24.64A31.25,31.25,0,0,1,776,217.09c2.16,5.4,4.76,12.08,7.21,18.8,2.36,6.47,4.58,13,6.15,18.48a91,91,0,0,1,2.74,33.6,59.7,59.7,0,0,1-.9,6.11Z"/><path class="cls-6" d="M792.14,288a91,91,0,0,0-2.74-33.6c-1.57-5.49-.08-16.24,2.52-24,1.64-4.91,1.08-19.73,4.41-22.82a36.3,36.3,0,0,0,4-4.39s-2.57,12.06-2.49,16.49c.06,3.5.22,10.34.47,11.35,3.91,15.56,7.48,51.37-5.41,61.79a16.38,16.38,0,0,1-1.67,1.3A59.7,59.7,0,0,0,792.14,288Z"/><path class="cls-6" d="M795.27,236.48c1.68,16.85,2.58,39.49-2.68,51.69"/><path class="cls-13" d="M813.32,277.2c0,18.44-.94,38-14.57,38-12.62,0-14.58-19.55-14.58-38S790.83,227,798.88,227,813.32,258.76,813.32,277.2Z"/><path class="cls-14" d="M810.26,250.57c0,3.18-5.16,5.76-11.51,5.76s-11.51-2.58-11.51-5.76"/><path class="cls-14" d="M811.87,259.85c0,3.62-5.88,6.56-13.12,6.56s-13.12-2.94-13.12-6.56"/><path class="cls-14" d="M813,268.86c0,3.88-6.46,7-14.22,7s-14.06-3.15-14.06-7"/><path class="cls-14" d="M813.32,280.24c0,4-6.52,7.29-14.57,7.29s-14.46-3.11-14.46-7.14"/><path class="cls-14" d="M813,289.23c0,3.94-6.38,7.13-14.25,7.13s-13.89-2.78-14.13-6.92"/><path class="cls-15" d="M798.88,227c-4,0-7.73,8-10.4,18.28.21,2.75,4.72,5,10.27,5S809,247.93,809,245.09l0-.08C806.47,234.85,802.88,227,798.88,227Z"/><line class="cls-14" x1="798.88" y1="227.01" x2="798.88" y2="315.19"/><path class="cls-14" d="M798.88,227s-2.84,2.45-5.74,28c-1.41,12.47-1.69,31.34-1,39.79a111.74,111.74,0,0,0,3.36,19.88"/><path class="cls-14" d="M798.88,227s-6.85,3-9.75,28.6c-1.41,12.47-2.33,30.25-1.61,38.69,1,11.32,4.41,18.32,4.41,18.32"/><path class="cls-14" d="M799.18,227s2.79,2.45,5.64,28c1.39,12.47,1.66,31.34,1,39.79a93.54,93.54,0,0,1-3.69,19.88"/><path class="cls-14" d="M799.18,227s6.73,3,9.58,28.6c1.38,12.47,2.29,30.25,1.58,38.69-.94,11.32-4.5,18.32-4.5,18.32"/><path class="cls-6" d="M793.45,315.49v10.59c0,1.55,2.51,2.81,5.6,2.81s5.61-1.26,5.61-2.81V315.49Z"/><ellipse class="cls-6" cx="799.05" cy="315.49" rx="5.61" ry="2.8"/><path class="cls-6" d="M804,317.35a9.62,9.62,0,0,1-8.92.53h0c-11.91-5.54-13.65-24.22-11.65-45.07,0-5.85-3.15-13.64-3.15-13.64s8.14,4.5,11.81,10.65c3.41,5.73,8.2,12.06,9.77,17.54,3.89,13.64,3.79,16.67,3,23.88a60.3,60.3,0,0,1-.9,6.11Z"/><path class="cls-6" d="M804.88,311.24c.75-7.21,0-10.07-3.84-23.71-1.56-5.48,4.38-12.22,7-20,1.64-4.9,3.56-10.26,9.34-12.2,0,0-3.76,9.26-2.89,18.5,1.49,16,4.07,31.79-8.82,42.22a16.38,16.38,0,0,1-1.67,1.3A60.3,60.3,0,0,0,804.88,311.24Z"/><ellipse class="cls-6" cx="844.47" cy="316.54" rx="2.9" ry="1.45"/><path class="cls-6" d="M869.16,288.27s-5.46-21.45-6.13-24.52-9.25-4.9-9.25-4.9l2.72,12.46Z"/><path class="cls-13" d="M858.63,268.45c0,18.44-.94,38-14.58,38-12.61,0-14.58-19.55-14.58-38s6.66-50.19,14.71-50.19S858.63,250,858.63,268.45Z"/><path class="cls-14" d="M855.56,241.82c0,3.18-5.15,5.76-11.51,5.76s-11.51-2.58-11.51-5.76"/><path class="cls-14" d="M857.17,251.1c0,3.62-5.87,6.56-13.12,6.56s-13.12-2.94-13.12-6.56"/><path class="cls-14" d="M858.27,260.11c0,3.88-6.46,7-14.22,7s-14-3.15-14-7"/><path class="cls-14" d="M858.63,271.49c0,4-6.53,7.29-14.58,7.29s-14.46-3.11-14.46-7.13"/><path class="cls-14" d="M858.31,280.48c0,3.94-6.39,7.13-14.26,7.13s-13.89-2.77-14.13-6.91"/><path class="cls-15" d="M844.18,218.26c-4,0-7.72,8-10.4,18.29.21,2.74,4.72,4.94,10.27,4.94s10.29-2.3,10.29-5.14l0-.09C851.77,226.11,848.18,218.26,844.18,218.26Z"/><line class="cls-14" x1="844.18" y1="218.26" x2="844.18" y2="306.44"/><path class="cls-14" d="M844.18,218.26s-2.84,2.45-5.74,28c-1.41,12.47-1.69,31.35-1,39.79A112.85,112.85,0,0,0,840.8,306"/><path class="cls-14" d="M844.18,218.26s-6.85,3-9.75,28.6c-1.41,12.47-2.33,30.26-1.61,38.7,1,11.32,4.42,18.32,4.42,18.32"/><path class="cls-14" d="M844.49,218.26s2.79,2.45,5.63,28c1.39,12.47,1.66,31.35,1,39.79a93.89,93.89,0,0,1-3.7,19.88"/><path class="cls-14" d="M844.49,218.26s6.73,3,9.57,28.6c1.39,12.47,2.29,30.26,1.59,38.7-.95,11.32-4.51,18.32-4.51,18.32"/><path class="cls-6" d="M838.75,306.75v10.59c0,1.54,2.51,2.8,5.61,2.8s5.6-1.26,5.6-2.8V306.75Z"/><ellipse class="cls-6" cx="844.36" cy="306.75" rx="5.61" ry="2.8"/><path class="cls-6" d="M849.29,308.61a9.22,9.22,0,0,1-4.95,1.37,9.35,9.35,0,0,1-4-.84h0c-8.94-4.15-12.43-22.85-12.77-40.74-.12-6,19.93,4,21.49,9.46,3.89,13.64,1.84,17.43,1.09,24.64-.39,3.77-.87,6-.89,6.11Z"/><path class="cls-6" d="M850.18,302.49c.75-7.21-.22-13.79,1.28-31l8.45-10.42c3.31,17.74.32,38.73-9,46.23a15.26,15.26,0,0,1-1.66,1.3C849.31,308.51,849.79,306.26,850.18,302.49Z"/><polygon class="cls-16" points="849.09 277.85 830.01 275.01 826.43 265.95 845.15 268.67 849.09 277.85"/><path class="cls-17" d="M808.55,284c-.06-8.13,15.6-24.95,16.23-24.75,0,0,19.8,9.21,20.37,9.39-1-.32-4.23,2.19-7.74,5.14-9.61,8.08-13.14,13-14.54,16.12-1.64,3.73-2,13.13-1.31,18.18C821.64,308.68,808.59,288.85,808.55,284Z"/><path class="cls-14" d="M834.69,264.49s-4.76,2.49-11.4,9.88-7.58,9.66-8.06,12c-.92,4.56,4.08,17.39,6,21.2"/><ellipse class="cls-6" cx="802.37" cy="366.5" rx="2.9" ry="1.45"/><path class="cls-6" d="M827.06,338.22s-5.46-21.44-6.13-24.52-9.25-4.89-9.25-4.89l2.72,12.45Z"/><path class="cls-13" d="M816.53,318.41c0,18.43-.94,38-14.58,38-12.61,0-14.58-19.56-14.58-38s6.66-50.19,14.71-50.19S816.53,300,816.53,318.41Z"/><path class="cls-14" d="M813.46,291.78c0,3.18-5.15,5.75-11.51,5.75s-11.51-2.57-11.51-5.75"/><path class="cls-14" d="M815.07,301.06c0,3.62-5.87,6.56-13.12,6.56s-13.12-2.94-13.12-6.56"/><path class="cls-14" d="M816.17,310.07c0,3.88-6.46,7-14.22,7s-14.05-3.14-14.05-7"/><path class="cls-14" d="M816.53,321.45c0,4-6.53,7.29-14.58,7.29s-14.46-3.11-14.46-7.14"/><path class="cls-14" d="M816.21,330.44c0,3.93-6.38,7.13-14.26,7.13s-13.88-2.78-14.13-6.92"/><path class="cls-15" d="M802.08,268.22c-4,0-7.72,8-10.4,18.28.22,2.75,4.73,4.94,10.27,4.94s10.29-2.3,10.29-5.14l0-.09C809.68,276.06,806.09,268.22,802.08,268.22Z"/><line class="cls-14" x1="802.08" y1="268.22" x2="802.08" y2="356.4"/><path class="cls-14" d="M802.08,268.22s-2.84,2.45-5.73,28c-1.42,12.47-1.69,31.34-1,39.78a112.61,112.61,0,0,0,3.36,19.88"/><path class="cls-14" d="M802.08,268.22s-6.85,3-9.74,28.6c-1.42,12.46-2.34,30.25-1.62,38.69,1,11.32,4.42,18.32,4.42,18.32"/><path class="cls-14" d="M802.39,268.22s2.79,2.45,5.63,28c1.39,12.47,1.66,31.34,1,39.78a93.71,93.71,0,0,1-3.7,19.88"/><path class="cls-14" d="M802.39,268.22s6.73,3,9.57,28.6c1.39,12.46,2.29,30.25,1.59,38.69-.95,11.32-4.51,18.32-4.51,18.32"/><path class="cls-6" d="M796.65,356.7v10.59c0,1.55,2.51,2.8,5.61,2.8s5.6-1.25,5.6-2.8V356.7Z"/><ellipse class="cls-6" cx="802.26" cy="356.7" rx="5.61" ry="2.8"/><path class="cls-6" d="M807.19,358.56a9.23,9.23,0,0,1-5,1.38,9.35,9.35,0,0,1-4-.85h0c-8.93-4.16-12.43-22.86-12.77-40.75-.12-6,19.93,4,21.49,9.47,3.89,13.63,1.84,17.42,1.09,24.64-.39,3.76-.87,6-.89,6.11Z"/><path class="cls-6" d="M808.08,352.45c.75-7.22-.22-13.8,1.28-31L817.81,311c3.31,17.74.32,38.73-9,46.24a18.2,18.2,0,0,1-1.66,1.3C807.21,358.47,807.69,356.21,808.08,352.45Z"/><polygon class="cls-16" points="806.99 327.81 787.91 324.97 784.34 315.91 803.05 318.62 806.99 327.81"/><path class="cls-17" d="M766.46,334c-.07-8.14,15.59-24.95,16.22-24.76,0,0,19.81,9.22,20.37,9.39-1-.32-4.23,2.19-7.74,5.14-9.61,8.09-13.14,13-14.54,16.12-1.64,3.73-2,13.14-1.3,18.19C779.54,358.63,766.49,338.81,766.46,334Z"/><path class="cls-14" d="M792.59,314.44s-4.76,2.49-11.39,9.88-7.59,9.67-8.07,12c-.92,4.57,4.08,17.39,6,21.2"/><path class="cls-6" d="M728.9,357.28s-5.46-21.44-6.13-24.52-9.25-4.89-9.25-4.89l2.72,12.46Z"/><path class="cls-13" d="M718.37,337.47c0,18.44-.94,38-14.58,38-12.61,0-14.58-19.55-14.58-38s6.66-50.19,14.71-50.19S718.37,319,718.37,337.47Z"/><path class="cls-14" d="M715.3,310.84c0,3.18-5.15,5.76-11.51,5.76s-11.51-2.58-11.51-5.76"/><path class="cls-14" d="M716.91,320.12c0,3.62-5.87,6.56-13.12,6.56s-13.12-2.94-13.12-6.56"/><path class="cls-14" d="M718,329.13c0,3.88-6.46,7-14.22,7s-14-3.15-14-7"/><path class="cls-14" d="M718.37,340.51c0,4-6.53,7.29-14.58,7.29s-14.46-3.11-14.46-7.13"/><path class="cls-14" d="M718.05,349.5c0,3.94-6.38,7.13-14.26,7.13s-13.89-2.77-14.13-6.91"/><path class="cls-15" d="M703.92,287.28c-4,0-7.72,8-10.4,18.29.22,2.74,4.72,4.94,10.27,4.94s10.29-2.3,10.29-5.15l0-.08C711.52,295.12,707.92,287.28,703.92,287.28Z"/><line class="cls-14" x1="703.92" y1="287.28" x2="703.92" y2="375.46"/><path class="cls-14" d="M703.92,287.28s-2.84,2.45-5.74,28c-1.41,12.47-1.69,31.35-1,39.79A112.85,112.85,0,0,0,700.54,375"/><path class="cls-14" d="M703.92,287.28s-6.85,3-9.75,28.6c-1.41,12.47-2.33,30.26-1.61,38.7,1,11.32,4.42,18.31,4.42,18.31"/><path class="cls-14" d="M704.23,287.28s2.79,2.45,5.63,28c1.39,12.47,1.66,31.35,1,39.79a93.89,93.89,0,0,1-3.7,19.88"/><path class="cls-14" d="M704.23,287.28s6.73,3,9.57,28.6c1.39,12.47,2.29,30.26,1.59,38.7-.95,11.32-4.51,18.31-4.51,18.31"/><ellipse class="cls-6" cx="704.1" cy="375.76" rx="5.61" ry="2.8"/><path class="cls-8" d="M709,377.62a9.62,9.62,0,0,1-8.92.53h0c-8.93-4.15-12.43-22.85-12.77-40.74-.12-6,19.93,4,21.49,9.46,3.89,13.64,1.84,17.43,1.09,24.64-.39,3.77-.87,6-.89,6.11Z"/><path class="cls-8" d="M709.92,371.51c.75-7.21-.22-13.79,1.28-31l8.45-10.42c3.31,17.74.32,38.73-9,46.23a15.26,15.26,0,0,1-1.66,1.3C709.05,377.53,709.53,375.28,709.92,371.51Z"/><polygon class="cls-16" points="708.83 346.87 689.75 344.03 686.18 334.97 704.89 337.68 708.83 346.87"/><path class="cls-17" d="M668.3,353.05c-.07-8.13,15.59-24.95,16.22-24.76,0,0,19.81,9.22,20.37,9.39-1-.32-4.23,2.2-7.74,5.15-9.61,8.08-13.14,13-14.54,16.12-1.64,3.73-2,13.13-1.3,18.18C681.38,377.69,668.33,357.87,668.3,353.05Z"/><path class="cls-14" d="M694.43,333.51S689.67,336,683,343.38s-7.59,9.67-8.07,12c-.92,4.56,4.08,17.39,6,21.2"/><ellipse class="cls-6" cx="752.16" cy="405.98" rx="2.9" ry="1.45" transform="translate(-46.3 100.99) rotate(-7.45)"/><path class="cls-17" d="M735,402.6s-8.54-10.28-5.08-22.76c.85-3,4.06-7.72,4.06-7.72l9,12.35Z"/><path class="cls-13" d="M732.08,360.24c2.39,18.28,5.86,37.54,19.38,35.77,12.51-1.63,11.92-21.27,9.53-39.56s-13.12-48.9-21.1-47.85S729.69,342,732.08,360.24Z"/><path class="cls-14" d="M731.67,333.43c.41,3.15,5.85,5,12.15,4.22s11.08-4,10.67-7.2"/><path class="cls-14" d="M731.27,342.84c.47,3.59,6.68,5.74,13.86,4.8s12.63-4.61,12.16-8.2"/><path class="cls-14" d="M731.35,351.92c.5,3.85,7.32,6.13,15,5.12s13.53-4.94,13-8.79"/><path class="cls-14" d="M732.47,363.25c.52,4,7.42,6.38,15.4,5.34s13.94-5,13.42-8.95"/><path class="cls-14" d="M734,372.12c.51,3.91,7.25,6.24,15.06,5.22s13.41-4.55,13.11-8.69"/><path class="cls-15" d="M739.89,308.6c4-.53,8.7,6.92,12.69,16.78.14,2.75-4,5.51-9.54,6.23s-10.51-.95-10.87-3.77l0-.08C733.38,317.36,735.92,309.11,739.89,308.6Z"/><line class="cls-14" x1="739.89" y1="308.6" x2="751.33" y2="396.03"/><path class="cls-14" d="M739.89,308.6s3.14,2.06,9.33,27c3,12.18,5.74,30.86,6.15,39.32a112.47,112.47,0,0,1-.75,20.14"/><path class="cls-14" d="M739.89,308.6s7.19,2.11,13.38,27.09c3,12.18,6.24,29.7,6.62,38.16.51,11.35-2,18.73-2,18.73"/><path class="cls-14" d="M739.59,308.63s-2.45,2.8-2,28.52c.24,12.54,2.42,31.29,4.18,39.58A94,94,0,0,0,748.06,396"/><path class="cls-14" d="M739.59,308.63s-6.28,3.88-5.78,29.61c.24,12.54,1.65,30.29,3.44,38.57,2.41,11.1,6.85,17.58,6.85,17.58"/><path class="cls-8" d="M756.76,395.63l1.37,10.5c.2,1.53-2.13,3.1-5.2,3.5s-5.72-.51-5.92-2.05l-1.37-10.5Z"/><ellipse class="cls-6" cx="751.2" cy="396.35" rx="5.61" ry="2.8" transform="translate(-45.06 100.78) rotate(-7.45)"/><path class="cls-8" d="M746.55,398.84a9.1,9.1,0,0,0,5.08.72,9.36,9.36,0,0,0,3.83-1.35h0c8.32-5.27,7.24-10.17,7.4-20.21,0,0-19.54,9.49-17.86,16.55.88,3.67,1.52,4.21,1.55,4.29Z"/><path class="cls-8" d="M744.87,392.89a56,56,0,0,1-4-9l-8.12-9.95c2,11.42,1.84,17.61,12,23.85a16.29,16.29,0,0,0,1.82,1.07A14.43,14.43,0,0,0,744.87,392.89Z"/><polygon class="cls-16" points="745.32 393.4 763.34 386.38 765.92 379.8 747.72 384.91 745.32 393.4"/><path class="cls-17" d="M786,395.4c-1-8.07-18.7-22.71-19.29-22.44,0,0-18.45,11.71-19,12,1-.45,4.47,1.63,8.33,4.1,10.59,6.77,14.72,11.15,16.51,14.1,2.12,3.48,3.65,12.77,3.66,17.86C776.22,421.54,786.58,400.19,786,395.4Z"/><path class="cls-14" d="M757.54,379.42s5,1.85,12.58,8.31,8.78,8.6,9.56,10.87c1.5,4.4-1.8,17.77-3.25,21.8"/><ellipse class="cls-6" cx="871.32" cy="332.99" rx="1.45" ry="2.9" transform="matrix(0.08, -1, 1, 0.08, 470.96, 1175.48)"/><path class="cls-17" d="M855.21,326.12S849,314.3,855,302.81c1.45-2.79,5.56-6.71,5.56-6.71l6.29,13.95Z"/><path class="cls-13" d="M861.15,284.08c-1.45,18.38-2,37.94,11.55,39,12.57,1,16.06-18.35,17.51-36.73s-2.7-50.56-10.72-51.19S862.59,265.7,861.15,284.08Z"/><path class="cls-14" d="M866.29,257.77c-.25,3.17,4.69,6.14,11,6.64s11.67-1.66,11.92-4.83"/><path class="cls-14" d="M864,266.9c-.28,3.61,5.34,7,12.57,7.57s13.3-1.9,13.59-5.51"/><path class="cls-14" d="M862.16,275.79c-.31,3.87,5.88,7.52,13.62,8.12s14.26-2,14.56-5.9"/><path class="cls-14" d="M860.91,287.11c-.32,4,5.93,7.78,14,8.41s14.66-2,15-6"/><path class="cls-14" d="M860.52,296.1c-.31,3.92,5.8,7.6,13.65,8.22s14.07-1.67,14.63-5.78"/><path class="cls-15" d="M879.49,235.18c4,.31,7.07,8.57,8.93,19-.43,2.72-5.1,4.56-10.63,4.12s-10.07-3.1-9.85-5.93l0-.09C871.3,242.4,875.5,234.86,879.49,235.18Z"/><line class="cls-14" x1="879.49" y1="235.18" x2="872.56" y2="323.08"/><path class="cls-14" d="M879.49,235.18s2.64,2.66,3.52,28.38c.43,12.54-.78,31.38-2.13,39.75A111.93,111.93,0,0,1,876,322.86"/><path class="cls-14" d="M879.49,235.18s6.59,3.55,7.47,29.27c.43,12.54-.05,30.35-1.43,38.71-1.85,11.21-5.84,17.91-5.84,17.91"/><path class="cls-14" d="M879.18,235.15s-3,2.23-7.81,27.5c-2.37,12.32-4.12,31.11-4.11,39.58a93.68,93.68,0,0,0,2.12,20.11"/><path class="cls-14" d="M879.18,235.15s-6.94,2.49-11.79,27.76c-2.36,12.32-4.66,30-4.62,38.46.06,11.35,3.06,18.61,3.06,18.61"/><path class="cls-6" d="M878,323.81l-.83,10.56c-.12,1.54-2.73,2.6-5.81,2.36s-5.49-1.7-5.37-3.24l.83-10.56Z"/><ellipse class="cls-6" cx="872.37" cy="323.37" rx="2.8" ry="5.61" transform="translate(481.52 1167.67) rotate(-85.5)"/><path class="cls-6" d="M867.31,324.84a9.66,9.66,0,0,0,8.85,1.23h0c9.23-3.44,9.19-8.46,11.42-18.24,0,0-21.08,5.23-20.9,12.48.1,3.78.61,4.44.63,4.53Z"/><path class="cls-6" d="M866.89,318.68a56.74,56.74,0,0,1-2.07-9.68l-5.88-11.41c-.39,11.59-1.85,17.61,6.81,25.82a17.25,17.25,0,0,0,1.56,1.43A14.53,14.53,0,0,0,866.89,318.68Z"/><polygon class="cls-16" points="867.23 319.26 886.31 316.13 890.2 310.23 871.33 311.46 867.23 319.26"/><path class="cls-17" d="M906.61,329.65c.7-8.1-13.6-26.09-14.23-25.95,0,0-20.47,7.63-21,7.76,1.07-.23,4,2.52,7.31,5.74,9,8.81,12.09,13.95,13.23,17.21,1.35,3.84.92,13.25-.12,18.23C891.63,353.19,906.19,334.46,906.61,329.65Z"/><path class="cls-14" d="M882.08,308.12s4.55,2.85,10.59,10.74,6.81,10.23,7.1,12.61c.56,4.62-5.44,17-7.69,20.66"/><path class="cls-6" d="M838.85,353.83v11c0,1.62,2.62,2.92,5.85,2.92s5.85-1.3,5.85-2.92v-11Z"/><ellipse class="cls-6" cx="844.7" cy="353.83" rx="5.85" ry="2.92"/><path class="cls-6" d="M851.93,264.8h0A160.17,160.17,0,0,0,846.12,280c.89-11.43-1.44-28.69-1.44-28.69s.55.72,1.41,2.08A72.59,72.59,0,0,1,851.93,264.8Z"/><path class="cls-6" d="M849.84,355.77a9.57,9.57,0,0,1-5.16,1.44,9.69,9.69,0,0,1-4.14-.89h0c-12.42-5.78-11.54-38.52-9.45-60.26a39.58,39.58,0,0,0,0-7c-.68-7.89-2.24-26.1-2.24-26.1s2.16,5.11,5.11,12.49c2.25,5.64,5,12.6,7.51,19.61,2.46,6.75,4.78,13.54,6.41,19.26a95,95,0,0,1,2.86,35c-.41,3.92-.92,6.27-.94,6.37Z"/><path class="cls-6" d="M850.78,349.4a95,95,0,0,0-2.86-35c-1.63-5.72-3.95-12.51-6.41-19.26,0,0,1.91-7,4.61-15.1a160.17,160.17,0,0,1,5.81-15.19h0a51.7,51.7,0,0,1,2.53-4.92s1.26,11.83,1.35,16.46a96,96,0,0,0,.92,10c2.24,15.76,7.09,56.42-5.15,68.1a10.62,10.62,0,0,1-1.74,1.36C849.86,355.67,850.37,353.32,850.78,349.4Z"/><path class="cls-6" d="M844.2,252c.31-.45.48-.68.48-.68S847,268.56,846.12,280c-2.7,8.1-4.61,15.1-4.61,15.1-2.56-7-5.26-14-7.51-19.61A73.54,73.54,0,0,1,844.2,252Z"/><path class="cls-6" d="M834.91,289.16c4,10.57,7,19.28,8.87,25.88,4.33,15.2,3.16,35,2.32,42.07"/><path class="cls-6" d="M854,295.7c1.76,17.57,2.69,41.18-2.8,53.9"/><ellipse class="cls-6" cx="866.77" cy="370.59" rx="2.9" ry="1.45"/><path class="cls-17" d="M884.23,370.86s7-11.3,2-23.22c-1.21-2.9-4.93-7.13-4.93-7.13l-7.23,13.42Z"/><path class="cls-13" d="M881.66,328.48c0,18.44-.93,38-14.31,38-12.37,0-14.3-19.55-14.3-38s6.53-50.19,14.43-50.19S881.66,310,881.66,328.48Z"/><path class="cls-14" d="M878.65,301.85c0,3.18-5.06,5.75-11.3,5.75s-11.29-2.57-11.29-5.75"/><path class="cls-14" d="M880.23,311.13c0,3.62-5.77,6.56-12.88,6.56s-12.87-2.94-12.87-6.56"/><path class="cls-14" d="M881.31,320.14c0,3.88-6.34,7-14,7s-13.78-3.15-13.78-7"/><path class="cls-14" d="M881.66,331.52c0,4-6.41,7.29-14.31,7.29s-14.18-3.11-14.18-7.14"/><path class="cls-14" d="M881.34,340.51c0,3.94-6.26,7.13-14,7.13s-13.62-2.78-13.86-6.92"/><path class="cls-15" d="M867.48,278.29c-4,0-7.58,8-10.2,18.28.21,2.75,4.63,4.95,10.07,4.95s10.1-2.31,10.1-5.15l0-.09C874.93,286.13,871.41,278.29,867.48,278.29Z"/><line class="cls-14" x1="867.48" y1="278.29" x2="867.48" y2="366.47"/><path class="cls-14" d="M867.48,278.29s-2.79,2.45-5.63,28c-1.38,12.47-1.65,31.34-1,39.79a114.32,114.32,0,0,0,3.3,19.88"/><path class="cls-14" d="M867.48,278.29s-6.72,3-9.56,28.6c-1.39,12.47-2.29,30.25-1.59,38.69.95,11.32,4.34,18.32,4.34,18.32"/><path class="cls-14" d="M867.78,278.29s2.74,2.45,5.53,28c1.36,12.47,1.63,31.34,1,39.79A95.27,95.27,0,0,1,870.65,366"/><path class="cls-14" d="M867.78,278.29s6.6,3,9.4,28.6c1.36,12.47,2.24,30.25,1.55,38.69-.93,11.32-4.42,18.32-4.42,18.32"/><path class="cls-6" d="M862.15,366.77v10.59c0,1.55,2.47,2.81,5.5,2.81s5.5-1.26,5.5-2.81V366.77Z"/><path class="cls-6" d="M872.49,368.63a8.91,8.91,0,0,1-4.85,1.38,9.06,9.06,0,0,1-3.9-.85h0C855,365,855.4,360,854,350.08c0,0,17.42,7.13,16.69,14.34,0,0,1.85,4.12,1.83,4.21Z"/><path class="cls-6" d="M870.66,364.42c1.25-3.61,5.4-3.88,7.91-9.61s2.77-13.24,2.77-13.24c-.51,11.58,1.89,18.25-7.22,25.76a17.85,17.85,0,0,1-1.63,1.3C872.51,368.54,870.66,364.42,870.66,364.42Z"/><polygon class="cls-16" points="870.66 364.42 854.57 358.46 851.23 352.27 869.58 354.98 870.66 364.42"/><path class="cls-17" d="M849.6,345.59s19.43,9.22,20,9.39c-1-.32-4.14,2.19-7.59,5.14-9.43,8.09-21.76,14.5-21.76,14.5C837.36,368.09,849,345.39,849.6,345.59Z"/><path class="cls-14" d="M859.32,350.8s-4.67,2.49-11.18,9.88-7.44,11.59-7.91,13.94"/><ellipse class="cls-6" cx="790.37" cy="411.34" rx="2.9" ry="1.45"/><path class="cls-17" d="M807.83,411.61s7-11.3,2-23.22c-1.21-2.9-4.93-7.13-4.93-7.13l-7.23,13.42Z"/><path class="cls-13" d="M805.26,369.23c0,18.44-.92,38-14.3,38-12.38,0-14.31-19.55-14.31-38S783.19,319,791.09,319,805.26,350.79,805.26,369.23Z"/><path class="cls-14" d="M802.25,342.6c0,3.18-5.06,5.76-11.29,5.76s-11.3-2.58-11.3-5.76"/><path class="cls-14" d="M803.83,351.88c0,3.62-5.77,6.56-12.87,6.56s-12.88-2.94-12.88-6.56"/><path class="cls-14" d="M804.91,360.89c0,3.88-6.34,7-13.95,7s-13.79-3.15-13.79-7"/><path class="cls-14" d="M805.26,372.27c0,4-6.4,7.29-14.3,7.29s-14.19-3.11-14.19-7.13"/><path class="cls-14" d="M804.94,381.26c0,3.94-6.26,7.13-14,7.13s-13.63-2.77-13.87-6.91"/><path class="cls-15" d="M791.09,319c-4,0-7.59,8-10.21,18.28.21,2.75,4.63,4.95,10.08,4.95s10.09-2.3,10.09-5.15l0-.08C798.53,326.88,795,319,791.09,319Z"/><line class="cls-14" x1="791.09" y1="319.04" x2="791.09" y2="407.22"/><path class="cls-14" d="M791.09,319s-2.79,2.45-5.63,28c-1.39,12.47-1.66,31.35-1,39.79a114.32,114.32,0,0,0,3.3,19.88"/><path class="cls-14" d="M791.09,319s-6.73,3-9.57,28.6c-1.38,12.47-2.29,30.25-1.58,38.7.94,11.31,4.33,18.31,4.33,18.31"/><path class="cls-14" d="M791.38,319s2.74,2.45,5.53,28c1.36,12.47,1.63,31.35,1,39.79a95.27,95.27,0,0,1-3.63,19.88"/><path class="cls-14" d="M791.38,319s6.61,3,9.4,28.6c1.36,12.47,2.25,30.25,1.55,38.7-.92,11.31-4.42,18.31-4.42,18.31"/><path class="cls-18" d="M796.09,409.38a8.82,8.82,0,0,1-4.85,1.38,8.92,8.92,0,0,1-3.9-.85h0c-8.76-4.15-8.34-9.15-9.77-19.08,0,0,17.42,7.13,16.69,14.35,0,0,1.85,4.11,1.83,4.2Z"/><path class="cls-6" d="M794.26,405.18c1.25-3.62,5.4-3.89,7.91-9.62s2.77-13.24,2.77-13.24c-.51,11.58,1.89,18.26-7.22,25.76a15,15,0,0,1-1.63,1.3C796.11,409.29,794.26,405.18,794.26,405.18Z"/><polygon class="cls-16" points="794.26 405.18 778.17 399.21 774.83 393.02 793.18 395.73 794.26 405.18"/><path class="cls-17" d="M773.2,386.34s19.43,9.22,20,9.39c-1-.32-4.14,2.19-7.58,5.14-9.44,8.09-21.77,14.5-21.77,14.5C761,408.84,772.59,386.15,773.2,386.34Z"/><path class="cls-14" d="M782.93,391.56s-4.67,2.48-11.19,9.87-7.44,11.59-7.91,13.94"/><ellipse class="cls-6" cx="829.66" cy="393.96" rx="2.9" ry="1.45"/><path class="cls-13" d="M844.55,351.85c0,18.44-.92,38-14.3,38-12.38,0-14.31-19.55-14.31-38s6.54-50.19,14.44-50.19S844.55,333.41,844.55,351.85Z"/><path class="cls-14" d="M841.54,325.22c0,3.18-5.06,5.75-11.29,5.75S819,328.4,819,325.22"/><path class="cls-14" d="M843.12,334.5c0,3.62-5.76,6.56-12.87,6.56s-12.87-2.94-12.87-6.56"/><path class="cls-14" d="M844.2,343.51c0,3.88-6.34,7-14,7s-13.79-3.14-13.79-7"/><path class="cls-14" d="M844.55,354.89c0,4-6.4,7.29-14.3,7.29s-14.19-3.11-14.19-7.14"/><path class="cls-14" d="M844.24,363.88c0,3.93-6.27,7.13-14,7.13s-13.63-2.78-13.86-6.92"/><path class="cls-15" d="M830.38,301.66c-4,0-7.59,8-10.21,18.28.21,2.75,4.63,4.94,10.08,4.94s10.09-2.3,10.09-5.14l0-.09C837.83,309.5,834.3,301.66,830.38,301.66Z"/><line class="cls-14" x1="830.38" y1="301.66" x2="830.38" y2="389.84"/><path class="cls-14" d="M830.38,301.66s-2.79,2.45-5.63,28c-1.39,12.47-1.66,31.34-1,39.79a114.08,114.08,0,0,0,3.3,19.87"/><path class="cls-14" d="M830.38,301.66s-6.73,3-9.57,28.6c-1.38,12.46-2.29,30.25-1.58,38.69.94,11.32,4.33,18.32,4.33,18.32"/><path class="cls-14" d="M830.67,301.66s2.74,2.45,5.53,28c1.36,12.47,1.63,31.34,1,39.79a95.08,95.08,0,0,1-3.63,19.87"/><path class="cls-14" d="M830.67,301.66s6.61,3,9.4,28.6c1.36,12.46,2.25,30.25,1.55,38.69-.92,11.32-4.42,18.32-4.42,18.32"/><path class="cls-6" d="M825,390.14v10.59c0,1.55,2.47,2.8,5.51,2.8s5.5-1.25,5.5-2.8V390.14Z"/><path class="cls-6" d="M835.38,392a8.91,8.91,0,0,1-4.85,1.38,9.06,9.06,0,0,1-3.9-.85h0c-8.76-4.16-17.42-17.66-18.85-27.6,0,0,26.5,15.65,25.77,22.86,0,0,1.85,4.12,1.83,4.21Z"/><path class="cls-6" d="M833.55,387.79c1.25-3.61,5.4-3.88,7.91-9.61s2.78-13.25,2.78-13.25c-.51,11.59,1.88,18.26-7.22,25.77a19.45,19.45,0,0,1-1.64,1.3C835.4,391.91,833.55,387.79,833.55,387.79Z"/><polyline class="cls-9" points="907.97 367.59 939.46 328.75 918.43 331.8 899.66 370.49"/><polygon class="cls-16" points="912.6 343.05 927.87 343.04 939.46 328.75 918.43 331.8 912.6 343.05"/><line class="cls-14" x1="907.8" y1="362.55" x2="927.87" y2="333.39"/><path class="cls-17" d="M961.12,382c1.4-5.27,8.61-25.93,7.31-31.19-2.74-11.08-28.27-27.63-29-27.42,0,0-20.39,8.24-21,8.44,1.18-.36,4.57,1.4,8.87,4.24,11.05,7.29,21.62,16.12,22.53,19.89,1.28,5.25,1.69,20.63,1.46,26.62-.17,4.44,7.25,16.48,11.1,22.4.42.65,1.46-.17,1.28-1C962.32,397.47,960.12,385.72,961.12,382Z"/><path class="cls-14" d="M930.18,327.1s5.81,2,14.36,9.23c7.21,6.07,14.73,14,15.13,15.57,1.78,7.28-2.83,25.13-2.83,30.23s6.24,23,6.24,23"/><polyline class="cls-8" points="668.83 382.73 635.52 344.04 661.53 347.81 677.5 384.15"/><polygon class="cls-16" points="667.01 360.57 649.86 360.09 635.52 344.04 661.53 347.81 667.01 360.57"/><line class="cls-14" x1="669.76" y1="378.17" x2="649.86" y2="349.77"/><path class="cls-17" d="M610.67,369.16c-.09-11.3,24-32.05,24.85-31.79,0,0,25.23,10.2,26,10.43-1.45-.44-5.87,3.05-10.75,7.15-13.37,11.24-18.27,18-20.21,22.41-2.29,5.18-2.72,18.26-1.82,25.27C628.86,403.42,610.72,375.86,610.67,369.16Z"/><path class="cls-14" d="M647,342s-6.62,3.46-15.84,13.73c-9.06,10.09-10.55,13.43-11.21,16.7-1.28,6.34,5.67,24.17,8.4,29.46"/><polyline class="cls-8" points="727.25 405.74 693.94 367.05 719.95 370.81 735.92 407.16"/><polygon class="cls-16" points="725.43 383.58 708.28 383.1 693.94 367.05 719.95 370.81 725.43 383.58"/><line class="cls-14" x1="728.18" y1="401.18" x2="708.28" y2="372.78"/><path class="cls-17" d="M669.09,392.17c-.09-11.3,24-32.06,24.85-31.79,0,0,25.23,10.19,26,10.43-1.45-.44-5.88,3.05-10.75,7.15-13.37,11.24-18.27,18-20.21,22.41-2.29,5.18-2.73,18.25-1.82,25.27C687.27,426.43,669.14,398.87,669.09,392.17Z"/><path class="cls-14" d="M705.42,365s-6.62,3.46-15.84,13.73c-9.07,10.08-10.55,13.43-11.21,16.7-1.28,6.34,5.67,24.16,8.4,29.46"/><polyline class="cls-9" points="860.56 403.76 897.03 365.07 868.55 368.84 851.07 405.19"/><polygon class="cls-16" points="862.55 381.61 881.33 381.13 897.03 365.07 868.55 368.84 862.55 381.61"/><line class="cls-14" x1="859.55" y1="399.21" x2="881.33" y2="370.81"/><path class="cls-17" d="M924.24,390.2c.1-11.31-26.26-32.06-27.21-31.79,0,0-27.62,10.19-28.48,10.43,1.59-.44,6.44,3.05,11.78,7.15,14.63,11.24,20,18,22.12,22.41,2.51,5.18,3,18.25,2,25.27C904.33,424.45,924.18,396.9,924.24,390.2Z"/><path class="cls-14" d="M884.47,363s7.24,3.46,17.34,13.73c9.92,10.08,11.55,13.43,12.27,16.69,1.4,6.35-6.21,24.17-9.2,29.47"/><polyline class="cls-9" points="805.63 431.07 849.34 384.69 815.21 389.21 794.25 432.77"/><polygon class="cls-16" points="808.02 404.52 830.53 403.94 849.34 384.69 815.21 389.21 808.02 404.52"/><line class="cls-14" x1="804.41" y1="425.61" x2="830.53" y2="391.57"/><path class="cls-17" d="M882,414.81c.12-13.55-31.47-38.42-32.61-38.1,0,0-33.11,12.21-34.13,12.5,1.91-.53,7.71,3.65,14.11,8.57,17.54,13.47,24,21.59,26.52,26.85,3,6.22,3.57,40.5,2.38,48.91C858.09,474.48,881.88,422.84,882,414.81Z"/><path class="cls-14" d="M834.28,382.26s8.68,4.14,20.79,16.45c11.89,12.09,13.84,16.1,14.7,20,1.69,7.6-7.44,47.59-11,53.94"/><polyline class="cls-8" points="778.82 434.64 747.64 395.81 768.46 398.85 787.04 437.54"/><polygon class="cls-16" points="774.23 410.1 759.12 410.1 747.64 395.81 768.46 398.85 774.23 410.1"/><line class="cls-14" x1="778.98" y1="429.6" x2="759.12" y2="400.44"/><path class="cls-17" d="M719.77,460.2c-1.4-5.28-8.53-31.52-7.24-36.78,2.71-11.08,34.42-33.22,35.12-33,0,0,20.18,8.24,20.81,8.43-1.17-.36-4.52,1.41-8.77,4.24-11,7.3-27.85,21.71-28.76,25.48-1.26,5.26-1.67,26.22-1.44,32.21.17,4.44-7.17,16.48-11,22.4-.42.64-1.45-.17-1.27-1C718.58,475.7,720.75,463.94,719.77,460.2Z"/><path class="cls-14" d="M756.83,394.16A211.5,211.5,0,0,0,736.17,409c-7.13,6.06-14.58,13.95-15,15.56-1.76,7.28,2.8,30.71,2.8,35.82s-6.17,23-6.17,23"/><polygon class="cls-2" points="571.65 506.76 571.65 563.44 406.82 646.49 406.82 589.81 571.65 506.76"/><polygon class="cls-3" points="241.98 506.76 241.98 563.44 406.82 646.49 406.82 589.81 241.98 506.76"/><polygon class="cls-4" points="571.65 563.44 571.65 602.43 406.82 685.48 406.82 646.49 571.65 563.44"/><polygon class="cls-5" points="241.98 563.44 241.98 602.43 406.82 685.48 406.82 646.49 241.98 563.44"/><polyline class="cls-6" points="571.65 488.54 571.65 506.76 406.82 589.81 406.82 571.59"/><polyline class="cls-2" points="241.98 488.54 241.98 506.76 406.82 589.81 406.82 571.59"/><polygon class="cls-7" points="571.65 488.6 406.82 571.65 241.98 488.6 406.82 405.55 571.65 488.6"/><line class="cls-10" x1="297.43" y1="413.65" x2="297.43" y2="486.71"/><line class="cls-10" x1="307.28" y1="456.1" x2="307.28" y2="502.14"/><line class="cls-10" x1="337.78" y1="468.04" x2="337.78" y2="514.09"/><line class="cls-10" x1="378.16" y1="454.98" x2="378.16" y2="522.54"/><line class="cls-10" x1="400.48" y1="460.17" x2="400.48" y2="543.45"/><line class="cls-10" x1="491.92" y1="426.4" x2="491.92" y2="509.69"/><line class="cls-10" x1="536.85" y1="438.75" x2="536.85" y2="484.79"/><line class="cls-10" x1="510.24" y1="419.13" x2="510.24" y2="465.17"/><line class="cls-10" x1="460.07" y1="404.43" x2="460.07" y2="450.48"/><line class="cls-10" x1="432.81" y1="405.98" x2="432.81" y2="533.5"/><path class="cls-9" d="M416.13,300.49V440.8c0,.72-1.18,1.31-2.64,1.31s-2.64-.59-2.64-1.31V300.49Z"/><ellipse class="cls-6" cx="413.49" cy="300.49" rx="2.64" ry="1.32"/><path class="cls-6" d="M409.79,299.72l-.21,7.19c0,1,1.65,2,3.75,2s3.83-.74,3.87-1.8l.2-7.19Z"/><path class="cls-13" d="M421.43,278.23c.24,11-.06,22.66-8.19,22.84-7.52.17-8.95-11.46-9.19-22.46s3.32-30,8.11-30.11S421.19,267.24,421.43,278.23Z"/><path class="cls-14" d="M419.25,262.4c.05,1.89-3,3.5-6.78,3.58s-6.9-1.39-6.94-3.28"/><path class="cls-14" d="M420.34,267.91c0,2.16-3.42,4-7.74,4.08s-7.86-1.58-7.91-3.74"/><path class="cls-14" d="M421.11,273.27c.05,2.31-3.76,4.27-8.39,4.37s-8.41-1.69-8.47-4"/><path class="cls-15" d="M412.16,248.5c-2.4.06-4.5,4.87-6,11,.17,1.63,2.88,2.88,6.19,2.81s6.1-1.51,6.07-3.2l0,0C416.79,253.08,414.55,248.45,412.16,248.5Z"/><line class="cls-14" x1="412.16" y1="248.5" x2="413.32" y2="301.07"/><path class="cls-14" d="M412.16,248.5s-1.66,1.5-3.05,16.78A156.79,156.79,0,0,0,409,289a67.38,67.38,0,0,0,2.26,11.81"/><path class="cls-14" d="M412.16,248.5s-4,1.9-5.43,17.18c-.68,7.45-1,18.06-.46,23.09a33.18,33.18,0,0,0,2.87,10.86"/><path class="cls-14" d="M412.35,248.5s1.69,1.42,3.72,16.63a160,160,0,0,1,1.11,23.71,55.75,55.75,0,0,1-1.95,11.89"/><path class="cls-14" d="M412.35,248.5s4,1.72,6.08,16.92c1,7.42,1.76,18,1.45,23.05a32.11,32.11,0,0,1-2.45,11"/><ellipse class="cls-6" cx="413.42" cy="301.25" rx="3.34" ry="1.67" transform="translate(-6.49 9.12) rotate(-1.25)"/><path class="cls-9" d="M416.39,302.29a5.57,5.57,0,0,1-2.94.89,5.43,5.43,0,0,1-2.37-.46h0c-7.18-3.14-8.92-21.83-8-34.29a21.16,21.16,0,0,0-.07-4c-.48-4.51-2.15-12.17-2.15-12.17a6.62,6.62,0,0,1,5.46,4.31c1.36,3.2,3,7.14,4.54,11.12,1.49,3.82,2.91,7.68,3.91,10.93a54.31,54.31,0,0,1,2.07,20,35.83,35.83,0,0,1-.45,3.65Z"/><path class="cls-6" d="M416.84,298.64a54.31,54.31,0,0,0-2.07-20c-1-3.25,4.48-23.45,4.58-20.81.09,2.09.27,6.16.43,6.76,2.54,9.22,5.13,30.52-2.42,36.9a10,10,0,0,1-1,.8A35.83,35.83,0,0,0,416.84,298.64Z"/><polyline class="cls-19" points="415.22 367.5 428.84 341.77 417.17 345.88 410.8 370.09"/><polygon class="cls-16" points="415.11 352.96 423.83 351.24 428.84 341.77 417.17 345.88 415.11 352.96"/><line class="cls-14" x1="414.56" y1="364.63" x2="422.74" y2="345.72"/><path class="cls-17" d="M447.19,369.73c.21-3.17,2-15.78.67-18.64-2.81-6-19.25-12.6-19.63-12.4,0,0-10.72,7-11.06,7.19.63-.34,2.77.29,5.54,1.42,7.14,2.92,14.16,6.78,15.11,8.83,1.32,2.85,3.29,11.59,3.83,15,.4,2.55,6,8.59,8.85,11.54.32.32.82-.26.63-.72C449.63,378.45,447.05,372,447.19,369.73Z"/><path class="cls-14" d="M423.36,341.88s3.54.51,9.23,3.65c4.8,2.65,10,6.31,10.39,7.19,1.84,4,1.21,14.67,1.79,17.58s6.15,12.43,6.15,12.43"/><path class="cls-17" d="M327.92,345.54V472.81c0,.73-1.18,1.32-2.64,1.32s-2.64-.59-2.64-1.32V345.54Z"/><ellipse class="cls-17" cx="325.28" cy="345.54" rx="2.64" ry="1.32"/><path class="cls-17" d="M321.87,343.47l.11,6.38c0,.93,1.54,1.67,3.41,1.63s3.36-.81,3.35-1.74l-.11-6.38Z"/><ellipse class="cls-17" cx="325.25" cy="343.42" rx="3.38" ry="1.69" transform="translate(-5.65 5.44) rotate(-0.95)"/><path class="cls-17" d="M328.57,291.91h0a91.15,91.15,0,0,0-3.2,8.83c.4-6.6-1.11-16.56-1.11-16.56s.32.42.83,1.2A40.83,40.83,0,0,1,328.57,291.91Z"/><path class="cls-17" d="M328.24,344.49a5.57,5.57,0,0,1-3,.88,5.75,5.75,0,0,1-2.4-.47h0c-7.23-3.21-7-22.14-6-34.72a21.6,21.6,0,0,0,0-4l-1.55-15.06s1.3,2.93,3.08,7.17c1.35,3.23,3,7.23,4.53,11.25s2.89,7.78,3.88,11.07a54.88,54.88,0,0,1,2,20.22c-.2,2.27-.47,3.63-.48,3.69Z"/><path class="cls-17" d="M328.72,340.8a54.88,54.88,0,0,0-2-20.22c-1-3.29-2.4-7.19-3.88-11.07,0,0,1-4.06,2.52-8.77a91.15,91.15,0,0,1,3.2-8.83h0a30.51,30.51,0,0,1,1.42-2.86s.84,6.82.93,9.49c.08,2.11.53,5.13.63,5.75,1.45,9.09,4.64,32.53-2.32,39.4a6.8,6.8,0,0,1-1,.8C328.25,344.43,328.52,343.07,328.72,340.8Z"/><path class="cls-17" d="M324,284.58l.27-.4s1.51,10,1.11,16.56c-1.49,4.71-2.52,8.77-2.52,8.77-1.55-4-3.18-8-4.53-11.25A42.27,42.27,0,0,1,324,284.58Z"/><path class="cls-17" d="M319,306.15c2.42,6.07,4.22,11.07,5.38,14.87,2.65,8.73,2.16,20.17,1.74,24.28"/><path class="cls-17" d="M450.09,332.36V459.63c0,.73-1.19,1.32-2.64,1.32s-2.64-.59-2.64-1.32V332.36Z"/><ellipse class="cls-17" cx="447.45" cy="332.36" rx="2.64" ry="1.32"/><path class="cls-17" d="M444,330.29l.11,6.38c0,.93,1.54,1.67,3.4,1.63s3.37-.81,3.35-1.74l-.1-6.38Z"/><ellipse class="cls-17" cx="447.42" cy="330.24" rx="3.38" ry="1.69" transform="matrix(1, -0.02, 0.02, 1, -5.42, 7.47)"/><path class="cls-17" d="M450.41,331.31a5.57,5.57,0,0,1-3,.88,5.68,5.68,0,0,1-2.4-.47h0c-7.23-3.21-7-22.14-6-34.72a21.6,21.6,0,0,0-.05-4c-.46-4.56-.24-12.13,1.53-7.89,1.36,3.23,3,7.23,4.53,11.25s2.89,7.78,3.89,11.07a54.84,54.84,0,0,1,2,20.22,36.7,36.7,0,0,1-.47,3.69Z"/><path class="cls-17" d="M450.88,327.62a54.84,54.84,0,0,0-2-20.22c-1-3.29-2.4-7.19-3.89-11.07,0,0,1-4.06,2.52-8.77.94-3,5.47-4.87,5.56-2.2a56,56,0,0,0,.63,5.75c1.45,9.09,4.63,32.53-2.32,39.4a6.8,6.8,0,0,1-1,.8A36.7,36.7,0,0,0,450.88,327.62Z"/><path class="cls-15" d="M447.7,287c-1.49,4.71-2.69,9.29-2.69,9.29-1.54-4-2-5.16-3.34-8.39C442.66,284.46,445.64,284.54,447.7,287Z"/><path class="cls-17" d="M441.14,293c.73,8.1,2,15.38,3.11,19.18,2.65,8.73,4.42,15.86,4,20"/><path class="cls-17" d="M452.26,296.57c1.18,10.13,1.95,23.76-1.1,31.16"/><polyline class="cls-8" points="445.98 391.97 431.5 375.15 442.81 376.79 449.75 392.59"/><polygon class="cls-16" points="445.19 382.34 437.73 382.13 431.5 375.15 442.81 376.79 445.19 382.34"/><line class="cls-14" x1="446.38" y1="389.99" x2="437.73" y2="377.64"/><path class="cls-17" d="M420.69,386.07c0-4.91,10.43-13.93,10.81-13.82,0,0,11,4.43,11.31,4.54-.64-.2-2.56,1.32-4.68,3.11-5.81,4.88-7.94,7.83-8.78,9.74-1,2.25-6,17.55-5.6,20.6C423.79,410.58,420.72,389,420.69,386.07Z"/><path class="cls-14" d="M436.49,374.26a28.51,28.51,0,0,0-6.89,6c-3.94,4.39-4.58,5.84-4.87,7.26-.56,2.76-2.34,20.13-1.16,22.43"/><path class="cls-9" d="M373,308.57V473.08c0,.73-1.18,1.32-2.64,1.32s-2.64-.59-2.64-1.32V308.57Z"/><ellipse class="cls-6" cx="370.31" cy="308.57" rx="2.64" ry="1.32"/><path class="cls-8" d="M388.47,331.87V496.38c0,.73-1.18,1.32-2.64,1.32s-2.63-.59-2.63-1.32V331.87Z"/><ellipse class="cls-6" cx="385.83" cy="331.87" rx="2.64" ry="1.32"/><path class="cls-8" d="M382.13,337l-.21,7.2c0,1.05,1.65,1.95,3.75,2s3.84-.74,3.87-1.79l.21-7.2Z"/><path class="cls-6" d="M401.74,323.93s-5.29-14.46-6-16.54-6.75-2.73-6.75-2.73l2.76,8.43Z"/><path class="cls-13" d="M393.06,311c1.3,12.77,2,26.37-7.41,27.33,0,0-11.47-12.51-12.78-25.27s1.07-35.22,6.65-35.78S391.76,298.2,393.06,311Z"/><path class="cls-14" d="M389.05,292.74c.23,2.2-3.16,4.35-7.56,4.8s-8.15-1-8.37-3.17"/><path class="cls-14" d="M390.82,299.05c.26,2.51-3.6,5-8.62,5.47s-9.28-1.11-9.54-3.62"/><path class="cls-14" d="M392.22,305.21c.27,2.69-4,5.32-9.35,5.87s-9.95-1.18-10.22-3.87"/><path class="cls-15" d="M379.52,277.24c-2.8.28-4.79,6.07-5.91,13.39.34,1.88,3.61,3.09,7.45,2.7s7-2.33,6.76-4.29l0-.06C385.32,282.13,382.28,277,379.52,277.24Z"/><line class="cls-14" x1="379.52" y1="277.24" x2="385.74" y2="338.28"/><path class="cls-14" d="M379.52,277.24s-1.8,1.89-2,19.8a183,183,0,0,0,2.11,27.61,78.38,78.38,0,0,0,3.73,13.53"/><path class="cls-14" d="M379.52,277.24s-4.53,2.58-4.73,20.48c-.1,8.73.51,21.11,1.61,26.9"/><path class="cls-14" d="M379.72,277.22s2.11,1.49,5.88,19a185.25,185.25,0,0,1,3.49,27.47,65,65,0,0,1-1.15,14"/><path class="cls-14" d="M379.72,277.22s4.88,1.62,8.65,19.12c1.84,8.53,3.72,20.78,3.83,26.67a37.47,37.47,0,0,1-1.83,13"/><path class="cls-17" d="M389.42,339.42a6.43,6.43,0,0,1-3.32,1.3c-1,.1-3.49-1-4.35-1.31,0,0-8.68-13.94-10.18-26.3-.5-4.12,14.08,1.35,15.55,5,3.65,9.17,2.5,11.94,2.49,17a39.74,39.74,0,0,1-.19,4.29Z"/><path class="cls-17" d="M389.61,335.12c0-5,1.4-7.47,1.22-19.48l2.59-9.88c3.55,12.05,1.62,25.67-2.94,32.64a4.07,4.07,0,0,1-1.06,1A39.74,39.74,0,0,0,389.61,335.12Z"/><polygon class="cls-16" points="387.12 318.14 373.71 317.52 370.6 311.5 383.74 312.06 387.12 318.14"/><path class="cls-17" d="M359.49,325.28c-.62-5.63,9-18.37,9.49-18.28,0,0,14.36,5,14.76,5.06-.75-.15-2.77,1.82-5,4.11-6.09,6.27-8.19,9.9-8.93,12.18-.88,2.7-.43,9.23.38,12.68C370.29,341.42,359.86,328.61,359.49,325.28Z"/><path class="cls-14" d="M376.21,309.91s-3.12,2-7.2,7.64-4.57,7.22-4.73,8.88c-.31,3.23,4.05,11.75,5.68,14.25"/><path class="cls-8" d="M388.34,373.22c2.28-6.86,6.68-16.09,7.83-24.45,0,0-14,6-13.39,12.08,0,0,.4,14.8.42,14.88"/><polygon class="cls-16" points="382.78 360.85 395.69 355.82 398.38 350.61 383.65 352.89 382.78 360.85"/><path class="cls-17" d="M399.68,345s-15.59,7.76-16,7.9c.82-.27,3.32,1.85,6.09,4.33a106.2,106.2,0,0,0,17.46,12.21C409.5,363.93,400.17,344.82,399.68,345Z"/><path class="cls-14" d="M391.88,349.38s3.74,2.09,9,8.31,6,9.76,6.35,11.74"/><polyline class="cls-2" points="383.77 422.22 366.91 401.22 378.16 402.86 388.21 423.79"/><polygon class="cls-16" points="381.28 408.95 373.11 408.95 366.91 401.22 378.16 402.86 381.28 408.95"/><line class="cls-14" x1="383.85" y1="419.5" x2="373.11" y2="403.72"/><path class="cls-17" d="M361.14,434.18c-.76-2.85-4.61-17.05-3.92-19.89,1.47-6,9.31-16.11,9.69-16,0,0,10.92,4.46,11.25,4.56-.63-.19-2.44.76-4.74,2.3-5.92,3.94-5.75,9.88-6.24,11.91-.69,2.85-.91,14.19-.78,17.43.09,2.4-3.88,8.91-5.94,12.11-.23.35-.78-.09-.69-.54C360.49,442.57,361.67,436.21,361.14,434.18Z"/><path class="cls-14" d="M371.87,400.33s-.39,1.33-5,5.22c-3.86,3.28-4.79,8.47-5,9.35-1,3.93,1.52,16.61,1.52,19.37s-3.34,12.43-3.34,12.43"/><path class="cls-9" d="M524.82,330.47V495c0,.73-1.18,1.32-2.64,1.32s-2.63-.59-2.63-1.32V330.47Z"/><ellipse class="cls-6" cx="522.18" cy="330.47" rx="2.64" ry="1.32"/><path class="cls-6" d="M518.54,354.8l-.21,7.19c0,1.05,1.65,1.95,3.76,2s3.83-.74,3.86-1.79l.21-7.19Z"/><path class="cls-6" d="M539.8,346.37s-2.66-14.92-3-17.05-6.07-3.8-6.07-3.8l1.23,8.64Z"/><path class="cls-13" d="M533.6,332.31c-.92,12.59-2.54,25.9-11.85,25.21-8.62-.63-9-14.07-8.06-26.66s7-33.94,12.55-33.54S534.52,319.72,533.6,332.31Z"/><path class="cls-14" d="M532.83,314c-.15,2.17-3.8,3.67-8.14,3.35s-7.73-2.33-7.57-4.5"/><path class="cls-14" d="M533.47,320.39c-.18,2.48-4.34,4.19-9.29,3.83s-8.81-2.66-8.63-5.14"/><path class="cls-14" d="M533.77,326.6c-.19,2.65-4.76,4.48-10.06,4.09s-9.44-2.85-9.24-5.5"/><path class="cls-14" d="M533.45,334.39c-.2,2.75-4.82,4.65-10.32,4.25s-9.72-2.85-9.52-5.6"/><path class="cls-14" d="M532.78,340.51c-.2,2.69-4.72,4.55-10.09,4.16s-9.35-2.59-9.3-5.43"/><path class="cls-15" d="M526.24,297.32c-2.76-.2-5.67,5.07-8,12,0,1.89,3,3.62,6.76,3.89s7.14-1.06,7.28-3l0-.05C531,303.05,529,297.52,526.24,297.32Z"/><line class="cls-14" x1="526.24" y1="297.32" x2="521.84" y2="357.53"/><path class="cls-14" d="M526.24,297.32s-2.06,1.53-5.32,18.85a180.62,180.62,0,0,0-2.67,27.11,77.45,77.45,0,0,0,1.3,13.75"/><path class="cls-14" d="M526.24,297.32s-4.83,1.72-8.08,19c-1.59,8.44-3.11,20.54-3,26.34a38,38,0,0,0,2.1,12.73"/><path class="cls-14" d="M526.45,297.33s1.78,1.82,2.45,19.42A183,183,0,0,1,527.58,344a64.49,64.49,0,0,1-3.51,13.39"/><path class="cls-14" d="M526.45,297.33s4.44,2.41,5.11,20c.32,8.59.05,20.77-.85,26.5a36.77,36.77,0,0,1-4,12.29"/><ellipse class="cls-6" cx="521.94" cy="357.75" rx="1.92" ry="3.84" transform="translate(127.06 852.19) rotate(-85.82)"/><path class="cls-6" d="M525.21,359.26a6.55,6.55,0,0,1-6.11-.08h0c-5.89-3.28-7.35-16.23-6.69-28.46.22-4.08,13.41,3.71,14.21,7.53,2,9.51.38,12-.49,16.89a38.62,38.62,0,0,1-.92,4.12Z"/><path class="cls-6" d="M526.13,355.14c.87-4.89.54-9.43,2.42-21.11l6.29-6.7c1.38,12.28-1.71,26.47-8.43,31.13a10.43,10.43,0,0,1-1.2.8A38.62,38.62,0,0,0,526.13,355.14Z"/><polygon class="cls-16" points="526.62 338.25 513.73 335.36 511.74 329 524.38 331.78 526.62 338.25"/><path class="cls-17" d="M498.63,340.45c.36-5.56,11.9-16.26,12.31-16.1,0,0,13.07,7.29,13.44,7.43-.7-.27-3,1.29-5.54,3.13-7,5-9.62,8.19-10.73,10.28-1.31,2.47-2,8.87-1.8,12.35C506.33,357.93,498.41,343.74,498.63,340.45Z"/><path class="cls-14" d="M517.45,328.41s-3.37,1.46-8.27,6.17-5.67,6.23-6.11,7.81c-.86,3.07,1.92,12.07,3.07,14.77"/><polyline class="cls-19" points="524.57 391.92 542.91 369.31 530.67 371.09 519.74 393.61"/><polygon class="cls-16" points="527.27 377.63 536.16 377.63 542.91 369.31 530.67 371.09 527.27 377.63"/><line class="cls-14" x1="524.48" y1="388.99" x2="536.16" y2="372.01"/><path class="cls-17" d="M555.51,400.29c.82-3.07,5-15.09,4.26-18.15-1.6-6.45-16.46-16.09-16.86-16,0,0-11.88,4.79-12.24,4.91.68-.21,2.65.81,5.15,2.47,6.44,4.24,12.59,9.38,13.12,11.57.75,3.06,1,12,.85,15.5-.1,2.59,4.22,9.59,6.46,13,.25.37.85-.1.75-.58C556.21,409.32,554.93,402.47,555.51,400.29Z"/><path class="cls-14" d="M537.51,368.36s3.38,1.19,8.35,5.37c4.2,3.53,8.58,8.12,8.81,9.06,1,4.24-1.65,14.62-1.65,17.6s3.63,13.37,3.63,13.37"/><path class="cls-18" d="M289.67,324.29V488.8c0,.73-1.19,1.32-2.64,1.32s-2.64-.59-2.64-1.32V324.29Z"/><ellipse class="cls-6" cx="287.03" cy="324.29" rx="2.64" ry="1.32"/><path class="cls-8" d="M283.32,365l-.21,7.19c0,1.05,1.65,1.95,3.76,2s3.83-.75,3.86-1.8l.21-7.19Z"/><path class="cls-6" d="M268.23,353.07s2.34-15.91,2.59-18.18,6.32-4.23,6.32-4.23l-1,9.2Z"/><path class="cls-13" d="M274.35,338c1.39,13.32,3.54,27.38,13.39,26.35,9.12-.94,9.07-15.22,7.68-28.54S286.84,300,281,300.6,273,324.63,274.35,338Z"/><path class="cls-14" d="M274.57,318.48c.24,2.3,4.15,3.78,8.75,3.3s8.12-2.73,7.88-5"/><path class="cls-14" d="M274.1,325.31c.27,2.62,4.74,4.3,10,3.75s9.25-3.1,9-5.72"/><path class="cls-14" d="M274,331.9c.3,2.81,5.2,4.6,10.81,4s9.92-3.33,9.62-6.13"/><path class="cls-14" d="M274.58,340.16c.3,2.9,5.27,4.77,11.08,4.17s10.22-3.34,9.92-6.25"/><path class="cls-14" d="M275.49,346.63c.29,2.84,5.15,4.67,10.84,4.08s9.82-3,9.69-6.06"/><path class="cls-15" d="M281,300.6c2.92-.3,6.18,5.2,8.89,12.43,0,2-3,3.93-7.05,4.35s-7.61-.89-7.82-2.95l0-.06C276.12,306.84,278.13,300.9,281,300.6Z"/><line class="cls-14" x1="281.02" y1="300.6" x2="287.65" y2="364.32"/><path class="cls-14" d="M281,300.6s2.24,1.56,6.25,19.82A191.1,191.1,0,0,1,291,349.1a81.76,81.76,0,0,1-.94,14.61"/><path class="cls-14" d="M281,300.6s5.18,1.68,9.19,19.94c2,8.9,4,21.68,4.08,27.84A40.51,40.51,0,0,1,292.47,362"/><path class="cls-14" d="M280.8,300.63s-1.83,2-2,20.67a195.63,195.63,0,0,0,2.28,28.82,68.14,68.14,0,0,0,4.17,14.09"/><path class="cls-14" d="M280.8,300.63S276.16,303.32,276,322c-.07,9.12.62,22,1.76,28.08a39.09,39.09,0,0,0,4.64,12.9"/><ellipse class="cls-6" cx="287.54" cy="364.56" rx="4.07" ry="2.04" transform="translate(-36.18 31.71) rotate(-5.94)"/><path class="cls-8" d="M284.12,366.27a6.67,6.67,0,0,0,3.68.63,6.81,6.81,0,0,0,2.81-.92h0c6.14-3.67,7.26-17.45,6.16-30.4-.36-4.32-14.1,4.37-14.82,8.45-1.78,10.15,0,12.74,1.07,17.89.56,2.69,1.08,4.28,1.1,4.35Z"/><path class="cls-8" d="M283,361.92c-1.09-5.15-.88-10-3.26-22.3l-6.89-6.9c-1.06,13.07,2.68,28,9.95,32.74a13.92,13.92,0,0,0,1.3.81C284.1,366.2,283.58,364.61,283,361.92Z"/><polygon class="cls-16" points="281.95 344.03 295.52 340.55 297.43 333.73 284.11 337.1 281.95 344.03"/><path class="cls-17" d="M311.71,345.45c-.57-5.88-13.15-16.86-13.59-16.67,0,0-13.62,8.15-14,8.32.73-.31,3.22,1.27,6,3.13,7.55,5.12,10.47,8.38,11.71,10.56,1.47,2.57,2.41,9.34,2.32,13C304.11,364.24,312,348.94,311.71,345.45Z"/><path class="cls-14" d="M291.35,333.3s3.63,1.43,9,6.27,6.21,6.42,6.73,8.08c1,3.23-1.64,12.87-2.77,15.77"/><polyline class="cls-8" points="283.28 405.06 258.75 376.56 277.9 379.34 289.67 406.11"/><polygon class="cls-16" points="281.94 388.75 269.31 388.39 258.75 376.56 277.9 379.34 281.94 388.75"/><line class="cls-14" x1="283.96" y1="401.71" x2="269.31" y2="380.79"/><path class="cls-17" d="M240.44,395.07c-.06-8.33,17.67-23.61,18.31-23.41,0,0,18.58,7.5,19.15,7.68-1.07-.33-4.32,2.25-7.91,5.27-9.85,8.27-13.46,13.27-14.89,16.5-1.68,3.82-2,13.44-1.34,18.61C253.84,420.3,240.48,400,240.44,395.07Z"/><path class="cls-14" d="M267.2,375.07s-4.87,2.54-11.67,10.11-7.76,9.89-8.25,12.29c-.94,4.68,4.18,17.81,6.19,21.71"/><path class="cls-18" d="M355.74,364.91V529.42c0,.73-1.18,1.32-2.64,1.32s-2.64-.59-2.64-1.32V364.91Z"/><ellipse class="cls-6" cx="353.1" cy="364.91" rx="2.64" ry="1.32"/><path class="cls-8" d="M349.09,391.09l-.21,7.19c0,1.05,1.65,2,3.75,2s3.83-.74,3.87-1.8l.2-7.19Z"/><path class="cls-13" d="M360.17,364.68c1.55,12.23,2.57,25.27-6.48,26.42-8.36,1-11.31-11.75-12.86-24s.21-33.85,5.55-34.52S358.62,352.45,360.17,364.68Z"/><path class="cls-14" d="M355.9,347.28c.27,2.1-2.93,4.24-7.15,4.78s-7.85-.74-8.12-2.85"/><path class="cls-14" d="M357.75,353.29c.3,2.41-3.35,4.85-8.15,5.46s-9-.85-9.25-3.25"/><path class="cls-14" d="M359.23,359.18c.33,2.57-3.69,5.2-8.84,5.85s-9.58-.9-9.91-3.48"/><path class="cls-14" d="M360.43,366.69c.33,2.67-3.72,5.39-9.06,6.06s-9.85-.85-10.19-3.52"/><path class="cls-14" d="M361,372.68c.33,2.61-3.64,5.27-8.86,5.93s-9.44-.68-9.95-3.4"/><path class="cls-15" d="M346.38,332.61c-2.68.34-4.46,5.94-5.37,13,.37,1.81,3.55,2.89,7.23,2.42s6.63-2.39,6.39-4.27l0-.07C352.07,337.17,349,332.27,346.38,332.61Z"/><line class="cls-14" x1="346.38" y1="332.61" x2="353.78" y2="391.08"/><path class="cls-14" d="M346.38,332.61s-1.68,1.86-1.46,19.06a175.07,175.07,0,0,0,2.68,26.47,74.46,74.46,0,0,0,3.9,12.9"/><path class="cls-14" d="M346.38,332.61s-4.29,2.58-4.07,19.78c.11,8.39,1,20.26,2.18,25.8A37.29,37.29,0,0,0,349,390"/><path class="cls-14" d="M346.58,332.58s2.05,1.39,6.09,18.11a179.82,179.82,0,0,1,4,26.3,62.44,62.44,0,0,1-.78,13.5"/><path class="cls-14" d="M346.58,332.58s4.71,1.44,8.75,18.16c2,8.16,4.06,19.87,4.3,25.53a36,36,0,0,1-1.45,12.53"/><ellipse class="cls-6" cx="353.92" cy="391.27" rx="3.75" ry="1.87" transform="translate(-46.34 47.55) rotate(-7.22)"/><path class="cls-17" d="M357.35,392.09a6.44,6.44,0,0,1-5.87,1.1h0c-8.37-2.67-12.49-23.31-12.91-37.31a25.42,25.42,0,0,0-.54-4.43c-1.07-5-3.82-16.12-3.82-16.12a21,21,0,0,1,6.59,7c1.89,3.4,4.17,7.61,6.36,11.86,2.11,4.09,4.13,8.23,5.63,11.74a61,61,0,0,1,4.64,22c.05,2.53-.08,4.07-.08,4.13Z"/><path class="cls-6" d="M357.43,388a61,61,0,0,0-4.64-22c-1.5-3.51-1.41-10.77-.35-16.14.68-3.39-.93-13.17,1-15.5a25.39,25.39,0,0,0,2.28-3.25s-.69,8.22-.26,11.15c.33,2.31,1,6.83,1.26,7.48,3.9,10,9.27,33.44,1.6,41.44a11.71,11.71,0,0,1-1,1C357.35,392,357.48,390.49,357.43,388Z"/><path class="cls-6" d="M355.18,353.55c2.53,11,5,26,2.56,34.5"/><polyline class="cls-8" points="350.26 412.02 326.59 384.53 345.07 387.21 356.42 413.03"/><polygon class="cls-16" points="348.96 396.28 336.78 395.94 326.59 384.53 345.07 387.21 348.96 396.28"/><line class="cls-14" x1="350.92" y1="408.79" x2="336.78" y2="388.6"/><path class="cls-17" d="M308.93,402.38c-.06-8,17-22.78,17.66-22.58,0,0,17.93,7.24,18.48,7.41-1-.32-4.17,2.16-7.64,5.08-9.5,8-13,12.8-14.36,15.92-1.62,3.68-9.79,28.69-9.15,33.67C314,442.44,309,407.15,308.93,402.38Z"/><path class="cls-14" d="M334.74,383.08s-4.7,2.46-11.25,9.76-7.5,9.54-8,11.86c-.91,4.51-3.82,32.89-1.88,36.66"/><path class="cls-6" d="M476.74,355.71V520.22c0,.72-1.18,1.32-2.64,1.32s-2.64-.6-2.64-1.32V355.71Z"/><path class="cls-13" d="M485,334c-.36,12.52-1.39,25.78-10.65,25.52-8.57-.25-9.52-13.57-9.15-26.1s5.51-34,11-33.8S485.33,321.51,485,334Z"/><path class="cls-14" d="M483.4,315.88c-.06,2.16-3.61,3.81-7.93,3.68s-7.76-2-7.7-4.13"/><path class="cls-14" d="M484.31,322.22c-.07,2.46-4.12,4.34-9,4.19s-8.85-2.25-8.78-4.71"/><path class="cls-14" d="M484.88,328.36c-.07,2.63-4.52,4.64-9.79,4.49s-9.49-2.41-9.41-5.05"/><path class="cls-14" d="M484.9,336.1c-.08,2.73-4.58,4.82-10,4.66s-9.77-2.4-9.69-5.13"/><path class="cls-14" d="M484.51,342.19c-.08,2.68-4.48,4.72-9.83,4.57s-9.38-2.16-9.46-5"/><path class="cls-15" d="M476.14,299.65c-2.74-.08-5.41,5.28-7.42,12.22.09,1.87,3.1,3.45,6.87,3.56s7-1.36,7.09-3.29l0-.06C481.14,305.13,478.86,299.73,476.14,299.65Z"/><line class="cls-14" x1="476.14" y1="299.65" x2="474.4" y2="359.55"/><path class="cls-14" d="M476.14,299.65s-2,1.61-4.45,18.92a178.33,178.33,0,0,0-1.47,27,76.44,76.44,0,0,0,1.89,13.57"/><path class="cls-14" d="M476.14,299.65s-4.71,1.93-7.19,19.24c-1.2,8.44-2.18,20.5-1.86,26.25a37.74,37.74,0,0,0,2.64,12.53"/><path class="cls-14" d="M476.35,299.66s1.84,1.72,3.27,19.14a182.38,182.38,0,0,1-.11,27.05,63.57,63.57,0,0,1-2.91,13.43"/><path class="cls-14" d="M476.35,299.66s4.51,2.19,5.94,19.62c.69,8.49,1,20.59.31,26.31a36.62,36.62,0,0,1-3.42,12.35"/><path class="cls-6" d="M470.7,359.65l-.21,7.19c0,1.05,1.65,2,3.76,2s3.83-.75,3.86-1.8l.21-7.19Z"/><ellipse class="cls-6" cx="474.51" cy="359.76" rx="1.91" ry="3.81" transform="translate(101.12 823.61) rotate(-88.33)"/><path class="cls-6" d="M477.82,361.12a6.5,6.5,0,0,1-6.06.18h0c-8-4-8.8-16.72-7-30.85.08-4-1.87-9.32-1.87-9.32s5.44,3.22,7.81,7.46c2.21,4,5.34,8.36,6.29,12.12,2.37,9.34,2.24,11.39,1.59,16.28a40.3,40.3,0,0,1-.73,4.13Z"/><path class="cls-6" d="M478.55,357c.65-4.89.24-6.85-2.14-16.19-1-3.75,3.22-8.21,5.14-13.44,1.21-3.3,2.62-6.9,6.59-8.11a30.61,30.61,0,0,0-2.33,12.52c.7,10.88,2.13,21.67-6.83,28.5a13.23,13.23,0,0,1-1.16.85A40.3,40.3,0,0,0,478.55,357Z"/><path class="cls-17" d="M476.58,399.32c2.28-6.86,6.69-16.09,7.83-24.46,0,0-14,6-13.39,12.08,0,0,.85,14.18.87,14.26"/><polygon class="cls-16" points="471.02 386.94 483.93 381.92 486.62 376.71 471.89 378.99 471.02 386.94"/><path class="cls-17" d="M487.92,371.08s-15.59,7.77-16,7.91c.82-.27,3.32,1.85,6.09,4.33a106.67,106.67,0,0,0,17.46,12.21C497.74,390,488.41,370.92,487.92,371.08Z"/><path class="cls-14" d="M480.12,375.48s3.74,2.09,9,8.31,6,9.76,6.35,11.74"/><polyline class="cls-6" points="477.82 431.27 502.26 405.34 483.18 407.86 471.46 432.22"/><polygon class="cls-16" points="479.16 416.42 491.74 416.1 502.26 405.34 483.18 407.86 479.16 416.42"/><line class="cls-14" x1="477.14" y1="428.21" x2="491.74" y2="409.18"/><path class="cls-17" d="M520.5,422.18c.06-7.58-17.6-21.49-18.24-21.31,0,0-18.51,6.83-19.08,7,1.06-.29,4.31,2.05,7.89,4.79,9.8,7.54,13.4,12.08,14.82,15,1.68,3.47,2,12.23,1.34,16.94C507.15,445.13,520.46,426.67,520.5,422.18Z"/><path class="cls-14" d="M493.84,404s4.85,2.31,11.62,9.19,7.74,9,8.23,11.19c.94,4.25-4.17,16.2-6.17,19.75"/><path class="cls-2" d="M410.86,388.42V552.93c0,.73-1.18,1.32-2.64,1.32s-2.63-.59-2.63-1.32V388.42Z"/><ellipse class="cls-6" cx="408.22" cy="388.42" rx="2.64" ry="1.32"/><path class="cls-2" d="M404.52,428.22l-.21,7.2c0,1.05,1.65,1.95,3.76,2s3.83-.74,3.86-1.79l.21-7.19Z"/><path class="cls-17" d="M421.23,432.17s5.17-8.35,1.51-17.17a26.05,26.05,0,0,0-3.64-5.27l-5.35,9.92Z"/><path class="cls-13" d="M419.33,400.83c0,13.64-.68,28.09-10.58,28.09-9.15,0-10.58-14.45-10.58-28.09s4.84-37.12,10.68-37.12S419.33,387.2,419.33,400.83Z"/><path class="cls-14" d="M417.1,381.14c0,2.35-3.74,4.25-8.35,4.25s-8.35-1.9-8.35-4.25"/><path class="cls-14" d="M418.27,388c0,2.68-4.26,4.85-9.52,4.85s-9.52-2.17-9.52-4.85"/><path class="cls-14" d="M419.07,394.66c0,2.87-4.69,5.2-10.32,5.2s-10.19-2.33-10.19-5.2"/><path class="cls-14" d="M419.33,403.08c0,3-4.74,5.39-10.58,5.39s-10.49-2.3-10.49-5.28"/><path class="cls-14" d="M419.1,409.73c0,2.91-4.64,5.27-10.35,5.27s-10.07-2.05-10.25-5.11"/><path class="cls-15" d="M408.85,363.71c-2.93,0-5.61,5.91-7.55,13.53.16,2,3.43,3.65,7.45,3.65s7.47-1.7,7.47-3.8l0-.07C414.36,369.51,411.75,363.71,408.85,363.71Z"/><line class="cls-14" x1="408.85" y1="363.71" x2="408.85" y2="428.92"/><path class="cls-14" d="M408.85,363.71s-2.06,1.82-4.17,20.73a198.65,198.65,0,0,0-.72,29.42,84,84,0,0,0,2.43,14.7"/><path class="cls-14" d="M408.85,363.71s-5,2.24-7.08,21.16c-1,9.22-1.69,22.37-1.17,28.61A41.77,41.77,0,0,0,403.81,427"/><path class="cls-14" d="M409.07,363.71s2,1.82,4.09,20.73a202.7,202.7,0,0,1,.71,29.42,70.22,70.22,0,0,1-2.68,14.7"/><path class="cls-14" d="M409.07,363.71S414,366,416,384.87c1,9.22,1.67,22.37,1.16,28.61A40.47,40.47,0,0,1,413.9,427"/><path class="cls-20" d="M412.55,430.52a6.9,6.9,0,0,1-6.47.4h0c-6.48-3.07-6.17-6.76-7.23-14.11,0,0,12.89,5.28,12.34,10.61,0,0,1.37,3,1.36,3.11Z"/><path class="cls-20" d="M411.19,427.41c.93-2.67,4-2.87,5.85-7.1a31.42,31.42,0,0,0,2.06-9.8c-.38,8.57,1.39,13.5-5.34,19.05a11.83,11.83,0,0,1-1.21,1C412.56,430.46,411.19,427.41,411.19,427.41Z"/><polygon class="cls-16" points="411.19 427.41 399.3 423 396.82 418.42 410.4 420.43 411.19 427.41"/><path class="cls-17" d="M395.62,413.48s14.37,6.82,14.78,6.95c-.76-.24-3.07,1.62-5.61,3.8A98.77,98.77,0,0,1,388.7,435C386.57,430.12,395.17,413.34,395.62,413.48Z"/><path class="cls-14" d="M402.81,417.34s-3.45,1.84-8.27,7.3S389,433.21,388.7,435"/><polyline class="cls-2" points="410.89 482.1 432.81 458.85 415.7 461.11 405.19 482.95"/><polygon class="cls-16" points="412.09 468.78 423.38 468.49 432.81 458.85 415.7 461.11 412.09 468.78"/><line class="cls-14" x1="410.28" y1="479.36" x2="423.38" y2="462.29"/><path class="cls-8" d="M449.16,474c.06-6.8-15.78-19.27-16.35-19.11,0,0-16.6,6.13-17.11,6.27.95-.27,3.86,1.83,7.07,4.3,8.79,6.75,12,10.82,13.3,13.46,1.5,3.12,1.79,20.31,1.19,24.52C437.2,503.87,449.13,478,449.16,474Z"/><path class="cls-14" d="M425.26,457.62s4.35,2.08,10.42,8.25,6.94,8.08,7.37,10c.85,3.81-3.73,23.86-5.52,27"/></g></svg>